# vtk DataFile Version 2.0

ASCII

DATASET UNSTRUCTURED_GRID

POINTS 81 double 

3.87500000000000011e-01  0.00000000000000000e+00  0.00000000000000000e+00
4.00000000000000022e-01  0.00000000000000000e+00  0.00000000000000000e+00
4.12499999999999978e-01  0.00000000000000000e+00  0.00000000000000000e+00
4.24999999999999989e-01  0.00000000000000000e+00  0.00000000000000000e+00
4.37500000000000000e-01  0.00000000000000000e+00  0.00000000000000000e+00
4.50000000000000011e-01  0.00000000000000000e+00  0.00000000000000000e+00
4.62500000000000022e-01  0.00000000000000000e+00  0.00000000000000000e+00
4.74999999999999978e-01  0.00000000000000000e+00  0.00000000000000000e+00
4.87499999999999989e-01  0.00000000000000000e+00  0.00000000000000000e+00
5.00000000000000000e-01  0.00000000000000000e+00  0.00000000000000000e+00
5.12500000000000067e-01  0.00000000000000000e+00  0.00000000000000000e+00
5.25000000000000022e-01  0.00000000000000000e+00  0.00000000000000000e+00
5.37499999999999978e-01  0.00000000000000000e+00  0.00000000000000000e+00
5.50000000000000044e-01  0.00000000000000000e+00  0.00000000000000000e+00
5.62500000000000000e-01  0.00000000000000000e+00  0.00000000000000000e+00
5.75000000000000067e-01  0.00000000000000000e+00  0.00000000000000000e+00
5.87500000000000022e-01  0.00000000000000000e+00  0.00000000000000000e+00
6.00000000000000089e-01  0.00000000000000000e+00  0.00000000000000000e+00
6.12500000000000044e-01  0.00000000000000000e+00  0.00000000000000000e+00
6.25000000000000000e-01  0.00000000000000000e+00  0.00000000000000000e+00
6.37500000000000067e-01  0.00000000000000000e+00  0.00000000000000000e+00
6.50000000000000022e-01  0.00000000000000000e+00  0.00000000000000000e+00
6.62500000000000089e-01  0.00000000000000000e+00  0.00000000000000000e+00
6.75000000000000044e-01  0.00000000000000000e+00  0.00000000000000000e+00
6.87500000000000000e-01  0.00000000000000000e+00  0.00000000000000000e+00
7.00000000000000067e-01  0.00000000000000000e+00  0.00000000000000000e+00
7.12500000000000022e-01  0.00000000000000000e+00  0.00000000000000000e+00
7.25000000000000089e-01  0.00000000000000000e+00  0.00000000000000000e+00
7.37500000000000044e-01  0.00000000000000000e+00  0.00000000000000000e+00
7.50000000000000000e-01  0.00000000000000000e+00  0.00000000000000000e+00
7.62500000000000067e-01  0.00000000000000000e+00  0.00000000000000000e+00
7.75000000000000022e-01  0.00000000000000000e+00  0.00000000000000000e+00
7.87500000000000089e-01  0.00000000000000000e+00  0.00000000000000000e+00
8.00000000000000044e-01  0.00000000000000000e+00  0.00000000000000000e+00
8.12500000000000000e-01  0.00000000000000000e+00  0.00000000000000000e+00
8.25000000000000067e-01  0.00000000000000000e+00  0.00000000000000000e+00
8.37500000000000022e-01  0.00000000000000000e+00  0.00000000000000000e+00
8.50000000000000089e-01  0.00000000000000000e+00  0.00000000000000000e+00
8.62500000000000044e-01  0.00000000000000000e+00  0.00000000000000000e+00
8.75000000000000000e-01  0.00000000000000000e+00  0.00000000000000000e+00
8.87500000000000067e-01  0.00000000000000000e+00  0.00000000000000000e+00
9.00000000000000022e-01  0.00000000000000000e+00  0.00000000000000000e+00
9.12500000000000089e-01  0.00000000000000000e+00  0.00000000000000000e+00
9.25000000000000044e-01  0.00000000000000000e+00  0.00000000000000000e+00
9.37500000000000000e-01  0.00000000000000000e+00  0.00000000000000000e+00
9.50000000000000067e-01  0.00000000000000000e+00  0.00000000000000000e+00
9.62500000000000022e-01  0.00000000000000000e+00  0.00000000000000000e+00
9.75000000000000089e-01  0.00000000000000000e+00  0.00000000000000000e+00
9.87500000000000044e-01  0.00000000000000000e+00  0.00000000000000000e+00
1.00000000000000000e+00  0.00000000000000000e+00  0.00000000000000000e+00
3.62499999999999989e-01  0.00000000000000000e+00  0.00000000000000000e+00
3.75000000000000000e-01  0.00000000000000000e+00  0.00000000000000000e+00
0.00000000000000000e+00  0.00000000000000000e+00  0.00000000000000000e+00
1.25000000000000007e-02  0.00000000000000000e+00  0.00000000000000000e+00
2.50000000000000014e-02  0.00000000000000000e+00  0.00000000000000000e+00
3.75000000000000125e-02  0.00000000000000000e+00  0.00000000000000000e+00
5.00000000000000028e-02  0.00000000000000000e+00  0.00000000000000000e+00
6.25000000000000000e-02  0.00000000000000000e+00  0.00000000000000000e+00
7.50000000000000111e-02  0.00000000000000000e+00  0.00000000000000000e+00
8.75000000000000083e-02  0.00000000000000000e+00  0.00000000000000000e+00
1.00000000000000006e-01  0.00000000000000000e+00  0.00000000000000000e+00
1.12500000000000003e-01  0.00000000000000000e+00  0.00000000000000000e+00
1.25000000000000000e-01  0.00000000000000000e+00  0.00000000000000000e+00
1.37500000000000011e-01  0.00000000000000000e+00  0.00000000000000000e+00
1.49999999999999994e-01  0.00000000000000000e+00  0.00000000000000000e+00
1.62500000000000006e-01  0.00000000000000000e+00  0.00000000000000000e+00
1.74999999999999989e-01  0.00000000000000000e+00  0.00000000000000000e+00
1.87500000000000000e-01  0.00000000000000000e+00  0.00000000000000000e+00
2.00000000000000011e-01  0.00000000000000000e+00  0.00000000000000000e+00
2.12499999999999994e-01  0.00000000000000000e+00  0.00000000000000000e+00
2.25000000000000006e-01  0.00000000000000000e+00  0.00000000000000000e+00
2.37499999999999989e-01  0.00000000000000000e+00  0.00000000000000000e+00
2.50000000000000000e-01  0.00000000000000000e+00  0.00000000000000000e+00
2.62500000000000011e-01  0.00000000000000000e+00  0.00000000000000000e+00
2.75000000000000022e-01  0.00000000000000000e+00  0.00000000000000000e+00
2.87499999999999978e-01  0.00000000000000000e+00  0.00000000000000000e+00
2.99999999999999989e-01  0.00000000000000000e+00  0.00000000000000000e+00
3.12500000000000000e-01  0.00000000000000000e+00  0.00000000000000000e+00
3.25000000000000011e-01  0.00000000000000000e+00  0.00000000000000000e+00
3.37500000000000022e-01  0.00000000000000000e+00  0.00000000000000000e+00
3.49999999999999978e-01  0.00000000000000000e+00  0.00000000000000000e+00

CELLS 0 0


CELL_TYPES 0


POINT_DATA 81

SCALARS Rank unsigned_int
LOOKUP_TABLE default
0 0 0 0 0 0 0 0 0 0 0 0 0 0 0 0 0 0 0 0 0 0 0 0 0 0 0 0 0 0 0 0 0 0 0 0 0 0 0 0 0 0 0 0 0 0 0 0 0 0 0 0 0 0 0 0 0 0 0 0 0 0 0 0 0 0 0 0 0 0 0 0 0 0 0 0 0 0 0 0 0 

SCALARS Temperature double
LOOKUP_TABLE default
3.04110478590446633e+02
3.04118020350493964e+02
3.04123042169615189e+02
3.04127435632079539e+02
3.04131503427925793e+02
3.04135772491565035e+02
3.04138521695119664e+02
3.04140800519282493e+02
3.04142714907002585e+02
3.04144308318781668e+02
3.04145928285732452e+02
3.04146920583493852e+02
3.04147523383499561e+02
3.04147777698326081e+02
3.04147615983598200e+02
3.04147120697266018e+02
3.04146289373517050e+02
3.04145055300474723e+02
3.04142822941298959e+02
3.04140505466338652e+02
3.04137793420408002e+02
3.04134454629355957e+02
3.04129776812676255e+02
3.04125658617718784e+02
3.04120949448580689e+02
3.04115287358076102e+02
3.04107558832380846e+02
3.04100930391611371e+02
3.04093605833104903e+02
3.04085350375566861e+02
3.04075769757087699e+02
3.04061280368858775e+02
3.04047698352261250e+02
3.04033178167671679e+02
3.04016691742767136e+02
3.03992081390727549e+02
3.03969001263159157e+02
3.03944270998558693e+02
3.03916054432435999e+02
3.03873614080074617e+02
3.03832992104146172e+02
3.03788266518807006e+02
3.03735632914017458e+02
3.03664783491927494e+02
3.03600757773544842e+02
3.03525287632655761e+02
3.03430618940394879e+02
3.03294723567306733e+02
3.03136120241256435e+02
3.02824560450189949e+02
3.04095809573117833e+02
3.04103412802132596e+02
3.02413646881028512e+02
3.02752746724612507e+02
3.02928881946081049e+02
3.03084252210668865e+02
3.03195534332223474e+02
3.03286802798761698e+02
3.03366504095777714e+02
3.03457368452623996e+02
3.03526992501581674e+02
3.03587937485822749e+02
3.03644867677404079e+02
3.03705873506462865e+02
3.03747903546093312e+02
3.03785888942838142e+02
3.03822307757468138e+02
3.03862036978398919e+02
3.03889624554946408e+02
3.03914659272088215e+02
3.03938684592154402e+02
3.03964854623016663e+02
3.03982812106489973e+02
3.03998769101369987e+02
3.04013316940044717e+02
3.04026836291528127e+02
3.04042987708485271e+02
3.04055297491625879e+02
3.04065931199770773e+02
3.04075609375707018e+02
3.04087085074164918e+02

