MFEM mesh v1.0

# Difference with over flow-over-heated-plate is that it uses a spacing of 0.0125, to match PC2 domain.

# Created by: Pointwise

# MFEM Geometry Types:
#
# POINT       = 0
# SEGMENT     = 1
# TRIANGLE    = 2
# SQUARE      = 3
# TETRAHEDRON = 4
# CUBE        = 5
# PRISM       = 6

dimension
2

elements
1600
1 3 0 1 22 21
1 3 1 2 23 22
1 3 2 3 24 23
1 3 3 4 25 24
1 3 4 5 26 25
1 3 5 6 27 26
1 3 6 7 28 27
1 3 7 8 29 28
1 3 8 9 30 29
1 3 9 10 31 30
1 3 10 11 32 31
1 3 11 12 33 32
1 3 12 13 34 33
1 3 13 14 35 34
1 3 14 15 36 35
1 3 15 16 37 36
1 3 16 17 38 37
1 3 17 18 39 38
1 3 18 19 40 39
1 3 19 20 41 40
1 3 21 22 43 42
1 3 22 23 44 43
1 3 23 24 45 44
1 3 24 25 46 45
1 3 25 26 47 46
1 3 26 27 48 47
1 3 27 28 49 48
1 3 28 29 50 49
1 3 29 30 51 50
1 3 30 31 52 51
1 3 31 32 53 52
1 3 32 33 54 53
1 3 33 34 55 54
1 3 34 35 56 55
1 3 35 36 57 56
1 3 36 37 58 57
1 3 37 38 59 58
1 3 38 39 60 59
1 3 39 40 61 60
1 3 40 41 62 61
1 3 42 43 64 63
1 3 43 44 65 64
1 3 44 45 66 65
1 3 45 46 67 66
1 3 46 47 68 67
1 3 47 48 69 68
1 3 48 49 70 69
1 3 49 50 71 70
1 3 50 51 72 71
1 3 51 52 73 72
1 3 52 53 74 73
1 3 53 54 75 74
1 3 54 55 76 75
1 3 55 56 77 76
1 3 56 57 78 77
1 3 57 58 79 78
1 3 58 59 80 79
1 3 59 60 81 80
1 3 60 61 82 81
1 3 61 62 83 82
1 3 63 64 85 84
1 3 64 65 86 85
1 3 65 66 87 86
1 3 66 67 88 87
1 3 67 68 89 88
1 3 68 69 90 89
1 3 69 70 91 90
1 3 70 71 92 91
1 3 71 72 93 92
1 3 72 73 94 93
1 3 73 74 95 94
1 3 74 75 96 95
1 3 75 76 97 96
1 3 76 77 98 97
1 3 77 78 99 98
1 3 78 79 100 99
1 3 79 80 101 100
1 3 80 81 102 101
1 3 81 82 103 102
1 3 82 83 104 103
1 3 84 85 106 105
1 3 85 86 107 106
1 3 86 87 108 107
1 3 87 88 109 108
1 3 88 89 110 109
1 3 89 90 111 110
1 3 90 91 112 111
1 3 91 92 113 112
1 3 92 93 114 113
1 3 93 94 115 114
1 3 94 95 116 115
1 3 95 96 117 116
1 3 96 97 118 117
1 3 97 98 119 118
1 3 98 99 120 119
1 3 99 100 121 120
1 3 100 101 122 121
1 3 101 102 123 122
1 3 102 103 124 123
1 3 103 104 125 124
1 3 105 106 127 126
1 3 106 107 128 127
1 3 107 108 129 128
1 3 108 109 130 129
1 3 109 110 131 130
1 3 110 111 132 131
1 3 111 112 133 132
1 3 112 113 134 133
1 3 113 114 135 134
1 3 114 115 136 135
1 3 115 116 137 136
1 3 116 117 138 137
1 3 117 118 139 138
1 3 118 119 140 139
1 3 119 120 141 140
1 3 120 121 142 141
1 3 121 122 143 142
1 3 122 123 144 143
1 3 123 124 145 144
1 3 124 125 146 145
1 3 126 127 148 147
1 3 127 128 149 148
1 3 128 129 150 149
1 3 129 130 151 150
1 3 130 131 152 151
1 3 131 132 153 152
1 3 132 133 154 153
1 3 133 134 155 154
1 3 134 135 156 155
1 3 135 136 157 156
1 3 136 137 158 157
1 3 137 138 159 158
1 3 138 139 160 159
1 3 139 140 161 160
1 3 140 141 162 161
1 3 141 142 163 162
1 3 142 143 164 163
1 3 143 144 165 164
1 3 144 145 166 165
1 3 145 146 167 166
1 3 147 148 169 168
1 3 148 149 170 169
1 3 149 150 171 170
1 3 150 151 172 171
1 3 151 152 173 172
1 3 152 153 174 173
1 3 153 154 175 174
1 3 154 155 176 175
1 3 155 156 177 176
1 3 156 157 178 177
1 3 157 158 179 178
1 3 158 159 180 179
1 3 159 160 181 180
1 3 160 161 182 181
1 3 161 162 183 182
1 3 162 163 184 183
1 3 163 164 185 184
1 3 164 165 186 185
1 3 165 166 187 186
1 3 166 167 188 187
1 3 168 169 190 189
1 3 169 170 191 190
1 3 170 171 192 191
1 3 171 172 193 192
1 3 172 173 194 193
1 3 173 174 195 194
1 3 174 175 196 195
1 3 175 176 197 196
1 3 176 177 198 197
1 3 177 178 199 198
1 3 178 179 200 199
1 3 179 180 201 200
1 3 180 181 202 201
1 3 181 182 203 202
1 3 182 183 204 203
1 3 183 184 205 204
1 3 184 185 206 205
1 3 185 186 207 206
1 3 186 187 208 207
1 3 187 188 209 208
1 3 189 190 211 210
1 3 190 191 212 211
1 3 191 192 213 212
1 3 192 193 214 213
1 3 193 194 215 214
1 3 194 195 216 215
1 3 195 196 217 216
1 3 196 197 218 217
1 3 197 198 219 218
1 3 198 199 220 219
1 3 199 200 221 220
1 3 200 201 222 221
1 3 201 202 223 222
1 3 202 203 224 223
1 3 203 204 225 224
1 3 204 205 226 225
1 3 205 206 227 226
1 3 206 207 228 227
1 3 207 208 229 228
1 3 208 209 230 229
1 3 210 211 232 231
1 3 211 212 233 232
1 3 212 213 234 233
1 3 213 214 235 234
1 3 214 215 236 235
1 3 215 216 237 236
1 3 216 217 238 237
1 3 217 218 239 238
1 3 218 219 240 239
1 3 219 220 241 240
1 3 220 221 242 241
1 3 221 222 243 242
1 3 222 223 244 243
1 3 223 224 245 244
1 3 224 225 246 245
1 3 225 226 247 246
1 3 226 227 248 247
1 3 227 228 249 248
1 3 228 229 250 249
1 3 229 230 251 250
1 3 231 232 253 252
1 3 232 233 254 253
1 3 233 234 255 254
1 3 234 235 256 255
1 3 235 236 257 256
1 3 236 237 258 257
1 3 237 238 259 258
1 3 238 239 260 259
1 3 239 240 261 260
1 3 240 241 262 261
1 3 241 242 263 262
1 3 242 243 264 263
1 3 243 244 265 264
1 3 244 245 266 265
1 3 245 246 267 266
1 3 246 247 268 267
1 3 247 248 269 268
1 3 248 249 270 269
1 3 249 250 271 270
1 3 250 251 272 271
1 3 252 253 274 273
1 3 253 254 275 274
1 3 254 255 276 275
1 3 255 256 277 276
1 3 256 257 278 277
1 3 257 258 279 278
1 3 258 259 280 279
1 3 259 260 281 280
1 3 260 261 282 281
1 3 261 262 283 282
1 3 262 263 284 283
1 3 263 264 285 284
1 3 264 265 286 285
1 3 265 266 287 286
1 3 266 267 288 287
1 3 267 268 289 288
1 3 268 269 290 289
1 3 269 270 291 290
1 3 270 271 292 291
1 3 271 272 293 292
1 3 273 274 295 294
1 3 274 275 296 295
1 3 275 276 297 296
1 3 276 277 298 297
1 3 277 278 299 298
1 3 278 279 300 299
1 3 279 280 301 300
1 3 280 281 302 301
1 3 281 282 303 302
1 3 282 283 304 303
1 3 283 284 305 304
1 3 284 285 306 305
1 3 285 286 307 306
1 3 286 287 308 307
1 3 287 288 309 308
1 3 288 289 310 309
1 3 289 290 311 310
1 3 290 291 312 311
1 3 291 292 313 312
1 3 292 293 314 313
1 3 294 295 316 315
1 3 295 296 317 316
1 3 296 297 318 317
1 3 297 298 319 318
1 3 298 299 320 319
1 3 299 300 321 320
1 3 300 301 322 321
1 3 301 302 323 322
1 3 302 303 324 323
1 3 303 304 325 324
1 3 304 305 326 325
1 3 305 306 327 326
1 3 306 307 328 327
1 3 307 308 329 328
1 3 308 309 330 329
1 3 309 310 331 330
1 3 310 311 332 331
1 3 311 312 333 332
1 3 312 313 334 333
1 3 313 314 335 334
1 3 315 316 337 336
1 3 316 317 338 337
1 3 317 318 339 338
1 3 318 319 340 339
1 3 319 320 341 340
1 3 320 321 342 341
1 3 321 322 343 342
1 3 322 323 344 343
1 3 323 324 345 344
1 3 324 325 346 345
1 3 325 326 347 346
1 3 326 327 348 347
1 3 327 328 349 348
1 3 328 329 350 349
1 3 329 330 351 350
1 3 330 331 352 351
1 3 331 332 353 352
1 3 332 333 354 353
1 3 333 334 355 354
1 3 334 335 356 355
1 3 336 337 358 357
1 3 337 338 359 358
1 3 338 339 360 359
1 3 339 340 361 360
1 3 340 341 362 361
1 3 341 342 363 362
1 3 342 343 364 363
1 3 343 344 365 364
1 3 344 345 366 365
1 3 345 346 367 366
1 3 346 347 368 367
1 3 347 348 369 368
1 3 348 349 370 369
1 3 349 350 371 370
1 3 350 351 372 371
1 3 351 352 373 372
1 3 352 353 374 373
1 3 353 354 375 374
1 3 354 355 376 375
1 3 355 356 377 376
1 3 357 358 379 378
1 3 358 359 380 379
1 3 359 360 381 380
1 3 360 361 382 381
1 3 361 362 383 382
1 3 362 363 384 383
1 3 363 364 385 384
1 3 364 365 386 385
1 3 365 366 387 386
1 3 366 367 388 387
1 3 367 368 389 388
1 3 368 369 390 389
1 3 369 370 391 390
1 3 370 371 392 391
1 3 371 372 393 392
1 3 372 373 394 393
1 3 373 374 395 394
1 3 374 375 396 395
1 3 375 376 397 396
1 3 376 377 398 397
1 3 378 379 400 399
1 3 379 380 401 400
1 3 380 381 402 401
1 3 381 382 403 402
1 3 382 383 404 403
1 3 383 384 405 404
1 3 384 385 406 405
1 3 385 386 407 406
1 3 386 387 408 407
1 3 387 388 409 408
1 3 388 389 410 409
1 3 389 390 411 410
1 3 390 391 412 411
1 3 391 392 413 412
1 3 392 393 414 413
1 3 393 394 415 414
1 3 394 395 416 415
1 3 395 396 417 416
1 3 396 397 418 417
1 3 397 398 419 418
1 3 399 400 421 420
1 3 400 401 422 421
1 3 401 402 423 422
1 3 402 403 424 423
1 3 403 404 425 424
1 3 404 405 426 425
1 3 405 406 427 426
1 3 406 407 428 427
1 3 407 408 429 428
1 3 408 409 430 429
1 3 409 410 431 430
1 3 410 411 432 431
1 3 411 412 433 432
1 3 412 413 434 433
1 3 413 414 435 434
1 3 414 415 436 435
1 3 415 416 437 436
1 3 416 417 438 437
1 3 417 418 439 438
1 3 418 419 440 439
1 3 420 421 442 441
1 3 421 422 443 442
1 3 422 423 444 443
1 3 423 424 445 444
1 3 424 425 446 445
1 3 425 426 447 446
1 3 426 427 448 447
1 3 427 428 449 448
1 3 428 429 450 449
1 3 429 430 451 450
1 3 430 431 452 451
1 3 431 432 453 452
1 3 432 433 454 453
1 3 433 434 455 454
1 3 434 435 456 455
1 3 435 436 457 456
1 3 436 437 458 457
1 3 437 438 459 458
1 3 438 439 460 459
1 3 439 440 461 460
1 3 441 442 463 462
1 3 442 443 464 463
1 3 443 444 465 464
1 3 444 445 466 465
1 3 445 446 467 466
1 3 446 447 468 467
1 3 447 448 469 468
1 3 448 449 470 469
1 3 449 450 471 470
1 3 450 451 472 471
1 3 451 452 473 472
1 3 452 453 474 473
1 3 453 454 475 474
1 3 454 455 476 475
1 3 455 456 477 476
1 3 456 457 478 477
1 3 457 458 479 478
1 3 458 459 480 479
1 3 459 460 481 480
1 3 460 461 482 481
1 3 462 463 484 483
1 3 463 464 485 484
1 3 464 465 486 485
1 3 465 466 487 486
1 3 466 467 488 487
1 3 467 468 489 488
1 3 468 469 490 489
1 3 469 470 491 490
1 3 470 471 492 491
1 3 471 472 493 492
1 3 472 473 494 493
1 3 473 474 495 494
1 3 474 475 496 495
1 3 475 476 497 496
1 3 476 477 498 497
1 3 477 478 499 498
1 3 478 479 500 499
1 3 479 480 501 500
1 3 480 481 502 501
1 3 481 482 503 502
1 3 483 484 505 504
1 3 484 485 506 505
1 3 485 486 507 506
1 3 486 487 508 507
1 3 487 488 509 508
1 3 488 489 510 509
1 3 489 490 511 510
1 3 490 491 512 511
1 3 491 492 513 512
1 3 492 493 514 513
1 3 493 494 515 514
1 3 494 495 516 515
1 3 495 496 517 516
1 3 496 497 518 517
1 3 497 498 519 518
1 3 498 499 520 519
1 3 499 500 521 520
1 3 500 501 522 521
1 3 501 502 523 522
1 3 502 503 524 523
1 3 504 505 526 525
1 3 505 506 527 526
1 3 506 507 528 527
1 3 507 508 529 528
1 3 508 509 530 529
1 3 509 510 531 530
1 3 510 511 532 531
1 3 511 512 533 532
1 3 512 513 534 533
1 3 513 514 535 534
1 3 514 515 536 535
1 3 515 516 537 536
1 3 516 517 538 537
1 3 517 518 539 538
1 3 518 519 540 539
1 3 519 520 541 540
1 3 520 521 542 541
1 3 521 522 543 542
1 3 522 523 544 543
1 3 523 524 545 544
1 3 525 526 547 546
1 3 526 527 548 547
1 3 527 528 549 548
1 3 528 529 550 549
1 3 529 530 551 550
1 3 530 531 552 551
1 3 531 532 553 552
1 3 532 533 554 553
1 3 533 534 555 554
1 3 534 535 556 555
1 3 535 536 557 556
1 3 536 537 558 557
1 3 537 538 559 558
1 3 538 539 560 559
1 3 539 540 561 560
1 3 540 541 562 561
1 3 541 542 563 562
1 3 542 543 564 563
1 3 543 544 565 564
1 3 544 545 566 565
1 3 546 547 568 567
1 3 547 548 569 568
1 3 548 549 570 569
1 3 549 550 571 570
1 3 550 551 572 571
1 3 551 552 573 572
1 3 552 553 574 573
1 3 553 554 575 574
1 3 554 555 576 575
1 3 555 556 577 576
1 3 556 557 578 577
1 3 557 558 579 578
1 3 558 559 580 579
1 3 559 560 581 580
1 3 560 561 582 581
1 3 561 562 583 582
1 3 562 563 584 583
1 3 563 564 585 584
1 3 564 565 586 585
1 3 565 566 587 586
1 3 567 568 589 588
1 3 568 569 590 589
1 3 569 570 591 590
1 3 570 571 592 591
1 3 571 572 593 592
1 3 572 573 594 593
1 3 573 574 595 594
1 3 574 575 596 595
1 3 575 576 597 596
1 3 576 577 598 597
1 3 577 578 599 598
1 3 578 579 600 599
1 3 579 580 601 600
1 3 580 581 602 601
1 3 581 582 603 602
1 3 582 583 604 603
1 3 583 584 605 604
1 3 584 585 606 605
1 3 585 586 607 606
1 3 586 587 608 607
1 3 588 589 610 609
1 3 589 590 611 610
1 3 590 591 612 611
1 3 591 592 613 612
1 3 592 593 614 613
1 3 593 594 615 614
1 3 594 595 616 615
1 3 595 596 617 616
1 3 596 597 618 617
1 3 597 598 619 618
1 3 598 599 620 619
1 3 599 600 621 620
1 3 600 601 622 621
1 3 601 602 623 622
1 3 602 603 624 623
1 3 603 604 625 624
1 3 604 605 626 625
1 3 605 606 627 626
1 3 606 607 628 627
1 3 607 608 629 628
1 3 609 610 631 630
1 3 610 611 632 631
1 3 611 612 633 632
1 3 612 613 634 633
1 3 613 614 635 634
1 3 614 615 636 635
1 3 615 616 637 636
1 3 616 617 638 637
1 3 617 618 639 638
1 3 618 619 640 639
1 3 619 620 641 640
1 3 620 621 642 641
1 3 621 622 643 642
1 3 622 623 644 643
1 3 623 624 645 644
1 3 624 625 646 645
1 3 625 626 647 646
1 3 626 627 648 647
1 3 627 628 649 648
1 3 628 629 650 649
1 3 630 631 652 651
1 3 631 632 653 652
1 3 632 633 654 653
1 3 633 634 655 654
1 3 634 635 656 655
1 3 635 636 657 656
1 3 636 637 658 657
1 3 637 638 659 658
1 3 638 639 660 659
1 3 639 640 661 660
1 3 640 641 662 661
1 3 641 642 663 662
1 3 642 643 664 663
1 3 643 644 665 664
1 3 644 645 666 665
1 3 645 646 667 666
1 3 646 647 668 667
1 3 647 648 669 668
1 3 648 649 670 669
1 3 649 650 671 670
1 3 651 652 673 672
1 3 652 653 674 673
1 3 653 654 675 674
1 3 654 655 676 675
1 3 655 656 677 676
1 3 656 657 678 677
1 3 657 658 679 678
1 3 658 659 680 679
1 3 659 660 681 680
1 3 660 661 682 681
1 3 661 662 683 682
1 3 662 663 684 683
1 3 663 664 685 684
1 3 664 665 686 685
1 3 665 666 687 686
1 3 666 667 688 687
1 3 667 668 689 688
1 3 668 669 690 689
1 3 669 670 691 690
1 3 670 671 692 691
1 3 672 673 694 693
1 3 673 674 695 694
1 3 674 675 696 695
1 3 675 676 697 696
1 3 676 677 698 697
1 3 677 678 699 698
1 3 678 679 700 699
1 3 679 680 701 700
1 3 680 681 702 701
1 3 681 682 703 702
1 3 682 683 704 703
1 3 683 684 705 704
1 3 684 685 706 705
1 3 685 686 707 706
1 3 686 687 708 707
1 3 687 688 709 708
1 3 688 689 710 709
1 3 689 690 711 710
1 3 690 691 712 711
1 3 691 692 713 712
1 3 693 694 715 714
1 3 694 695 716 715
1 3 695 696 717 716
1 3 696 697 718 717
1 3 697 698 719 718
1 3 698 699 720 719
1 3 699 700 721 720
1 3 700 701 722 721
1 3 701 702 723 722
1 3 702 703 724 723
1 3 703 704 725 724
1 3 704 705 726 725
1 3 705 706 727 726
1 3 706 707 728 727
1 3 707 708 729 728
1 3 708 709 730 729
1 3 709 710 731 730
1 3 710 711 732 731
1 3 711 712 733 732
1 3 712 713 734 733
1 3 714 715 736 735
1 3 715 716 737 736
1 3 716 717 738 737
1 3 717 718 739 738
1 3 718 719 740 739
1 3 719 720 741 740
1 3 720 721 742 741
1 3 721 722 743 742
1 3 722 723 744 743
1 3 723 724 745 744
1 3 724 725 746 745
1 3 725 726 747 746
1 3 726 727 748 747
1 3 727 728 749 748
1 3 728 729 750 749
1 3 729 730 751 750
1 3 730 731 752 751
1 3 731 732 753 752
1 3 732 733 754 753
1 3 733 734 755 754
1 3 735 736 757 756
1 3 736 737 758 757
1 3 737 738 759 758
1 3 738 739 760 759
1 3 739 740 761 760
1 3 740 741 762 761
1 3 741 742 763 762
1 3 742 743 764 763
1 3 743 744 765 764
1 3 744 745 766 765
1 3 745 746 767 766
1 3 746 747 768 767
1 3 747 748 769 768
1 3 748 749 770 769
1 3 749 750 771 770
1 3 750 751 772 771
1 3 751 752 773 772
1 3 752 753 774 773
1 3 753 754 775 774
1 3 754 755 776 775
1 3 756 757 778 777
1 3 757 758 779 778
1 3 758 759 780 779
1 3 759 760 781 780
1 3 760 761 782 781
1 3 761 762 783 782
1 3 762 763 784 783
1 3 763 764 785 784
1 3 764 765 786 785
1 3 765 766 787 786
1 3 766 767 788 787
1 3 767 768 789 788
1 3 768 769 790 789
1 3 769 770 791 790
1 3 770 771 792 791
1 3 771 772 793 792
1 3 772 773 794 793
1 3 773 774 795 794
1 3 774 775 796 795
1 3 775 776 797 796
1 3 777 778 799 798
1 3 778 779 800 799
1 3 779 780 801 800
1 3 780 781 802 801
1 3 781 782 803 802
1 3 782 783 804 803
1 3 783 784 805 804
1 3 784 785 806 805
1 3 785 786 807 806
1 3 786 787 808 807
1 3 787 788 809 808
1 3 788 789 810 809
1 3 789 790 811 810
1 3 790 791 812 811
1 3 791 792 813 812
1 3 792 793 814 813
1 3 793 794 815 814
1 3 794 795 816 815
1 3 795 796 817 816
1 3 796 797 818 817
1 3 798 799 820 819
1 3 799 800 821 820
1 3 800 801 822 821
1 3 801 802 823 822
1 3 802 803 824 823
1 3 803 804 825 824
1 3 804 805 826 825
1 3 805 806 827 826
1 3 806 807 828 827
1 3 807 808 829 828
1 3 808 809 830 829
1 3 809 810 831 830
1 3 810 811 832 831
1 3 811 812 833 832
1 3 812 813 834 833
1 3 813 814 835 834
1 3 814 815 836 835
1 3 815 816 837 836
1 3 816 817 838 837
1 3 817 818 839 838
1 3 819 820 841 840
1 3 820 821 842 841
1 3 821 822 843 842
1 3 822 823 844 843
1 3 823 824 845 844
1 3 824 825 846 845
1 3 825 826 847 846
1 3 826 827 848 847
1 3 827 828 849 848
1 3 828 829 850 849
1 3 829 830 851 850
1 3 830 831 852 851
1 3 831 832 853 852
1 3 832 833 854 853
1 3 833 834 855 854
1 3 834 835 856 855
1 3 835 836 857 856
1 3 836 837 858 857
1 3 837 838 859 858
1 3 838 839 860 859
1 3 840 841 862 861
1 3 841 842 863 862
1 3 842 843 864 863
1 3 843 844 865 864
1 3 844 845 866 865
1 3 845 846 867 866
1 3 846 847 868 867
1 3 847 848 869 868
1 3 848 849 870 869
1 3 849 850 871 870
1 3 850 851 872 871
1 3 851 852 873 872
1 3 852 853 874 873
1 3 853 854 875 874
1 3 854 855 876 875
1 3 855 856 877 876
1 3 856 857 878 877
1 3 857 858 879 878
1 3 858 859 880 879
1 3 859 860 881 880
1 3 861 862 883 882
1 3 862 863 884 883
1 3 863 864 885 884
1 3 864 865 886 885
1 3 865 866 887 886
1 3 866 867 888 887
1 3 867 868 889 888
1 3 868 869 890 889
1 3 869 870 891 890
1 3 870 871 892 891
1 3 871 872 893 892
1 3 872 873 894 893
1 3 873 874 895 894
1 3 874 875 896 895
1 3 875 876 897 896
1 3 876 877 898 897
1 3 877 878 899 898
1 3 878 879 900 899
1 3 879 880 901 900
1 3 880 881 902 901
1 3 882 883 904 903
1 3 883 884 905 904
1 3 884 885 906 905
1 3 885 886 907 906
1 3 886 887 908 907
1 3 887 888 909 908
1 3 888 889 910 909
1 3 889 890 911 910
1 3 890 891 912 911
1 3 891 892 913 912
1 3 892 893 914 913
1 3 893 894 915 914
1 3 894 895 916 915
1 3 895 896 917 916
1 3 896 897 918 917
1 3 897 898 919 918
1 3 898 899 920 919
1 3 899 900 921 920
1 3 900 901 922 921
1 3 901 902 923 922
1 3 903 904 925 924
1 3 904 905 926 925
1 3 905 906 927 926
1 3 906 907 928 927
1 3 907 908 929 928
1 3 908 909 930 929
1 3 909 910 931 930
1 3 910 911 932 931
1 3 911 912 933 932
1 3 912 913 934 933
1 3 913 914 935 934
1 3 914 915 936 935
1 3 915 916 937 936
1 3 916 917 938 937
1 3 917 918 939 938
1 3 918 919 940 939
1 3 919 920 941 940
1 3 920 921 942 941
1 3 921 922 943 942
1 3 922 923 944 943
1 3 924 925 946 945
1 3 925 926 947 946
1 3 926 927 948 947
1 3 927 928 949 948
1 3 928 929 950 949
1 3 929 930 951 950
1 3 930 931 952 951
1 3 931 932 953 952
1 3 932 933 954 953
1 3 933 934 955 954
1 3 934 935 956 955
1 3 935 936 957 956
1 3 936 937 958 957
1 3 937 938 959 958
1 3 938 939 960 959
1 3 939 940 961 960
1 3 940 941 962 961
1 3 941 942 963 962
1 3 942 943 964 963
1 3 943 944 965 964
1 3 945 946 967 966
1 3 946 947 968 967
1 3 947 948 969 968
1 3 948 949 970 969
1 3 949 950 971 970
1 3 950 951 972 971
1 3 951 952 973 972
1 3 952 953 974 973
1 3 953 954 975 974
1 3 954 955 976 975
1 3 955 956 977 976
1 3 956 957 978 977
1 3 957 958 979 978
1 3 958 959 980 979
1 3 959 960 981 980
1 3 960 961 982 981
1 3 961 962 983 982
1 3 962 963 984 983
1 3 963 964 985 984
1 3 964 965 986 985
1 3 966 967 988 987
1 3 967 968 989 988
1 3 968 969 990 989
1 3 969 970 991 990
1 3 970 971 992 991
1 3 971 972 993 992
1 3 972 973 994 993
1 3 973 974 995 994
1 3 974 975 996 995
1 3 975 976 997 996
1 3 976 977 998 997
1 3 977 978 999 998
1 3 978 979 1000 999
1 3 979 980 1001 1000
1 3 980 981 1002 1001
1 3 981 982 1003 1002
1 3 982 983 1004 1003
1 3 983 984 1005 1004
1 3 984 985 1006 1005
1 3 985 986 1007 1006
1 3 987 988 1009 1008
1 3 988 989 1010 1009
1 3 989 990 1011 1010
1 3 990 991 1012 1011
1 3 991 992 1013 1012
1 3 992 993 1014 1013
1 3 993 994 1015 1014
1 3 994 995 1016 1015
1 3 995 996 1017 1016
1 3 996 997 1018 1017
1 3 997 998 1019 1018
1 3 998 999 1020 1019
1 3 999 1000 1021 1020
1 3 1000 1001 1022 1021
1 3 1001 1002 1023 1022
1 3 1002 1003 1024 1023
1 3 1003 1004 1025 1024
1 3 1004 1005 1026 1025
1 3 1005 1006 1027 1026
1 3 1006 1007 1028 1027
1 3 1008 1009 1030 1029
1 3 1009 1010 1031 1030
1 3 1010 1011 1032 1031
1 3 1011 1012 1033 1032
1 3 1012 1013 1034 1033
1 3 1013 1014 1035 1034
1 3 1014 1015 1036 1035
1 3 1015 1016 1037 1036
1 3 1016 1017 1038 1037
1 3 1017 1018 1039 1038
1 3 1018 1019 1040 1039
1 3 1019 1020 1041 1040
1 3 1020 1021 1042 1041
1 3 1021 1022 1043 1042
1 3 1022 1023 1044 1043
1 3 1023 1024 1045 1044
1 3 1024 1025 1046 1045
1 3 1025 1026 1047 1046
1 3 1026 1027 1048 1047
1 3 1027 1028 1049 1048
1 3 1029 1030 1051 1050
1 3 1030 1031 1052 1051
1 3 1031 1032 1053 1052
1 3 1032 1033 1054 1053
1 3 1033 1034 1055 1054
1 3 1034 1035 1056 1055
1 3 1035 1036 1057 1056
1 3 1036 1037 1058 1057
1 3 1037 1038 1059 1058
1 3 1038 1039 1060 1059
1 3 1039 1040 1061 1060
1 3 1040 1041 1062 1061
1 3 1041 1042 1063 1062
1 3 1042 1043 1064 1063
1 3 1043 1044 1065 1064
1 3 1044 1045 1066 1065
1 3 1045 1046 1067 1066
1 3 1046 1047 1068 1067
1 3 1047 1048 1069 1068
1 3 1048 1049 1070 1069
1 3 1050 1051 1072 1071
1 3 1051 1052 1073 1072
1 3 1052 1053 1074 1073
1 3 1053 1054 1075 1074
1 3 1054 1055 1076 1075
1 3 1055 1056 1077 1076
1 3 1056 1057 1078 1077
1 3 1057 1058 1079 1078
1 3 1058 1059 1080 1079
1 3 1059 1060 1081 1080
1 3 1060 1061 1082 1081
1 3 1061 1062 1083 1082
1 3 1062 1063 1084 1083
1 3 1063 1064 1085 1084
1 3 1064 1065 1086 1085
1 3 1065 1066 1087 1086
1 3 1066 1067 1088 1087
1 3 1067 1068 1089 1088
1 3 1068 1069 1090 1089
1 3 1069 1070 1091 1090
1 3 1071 1072 1093 1092
1 3 1072 1073 1094 1093
1 3 1073 1074 1095 1094
1 3 1074 1075 1096 1095
1 3 1075 1076 1097 1096
1 3 1076 1077 1098 1097
1 3 1077 1078 1099 1098
1 3 1078 1079 1100 1099
1 3 1079 1080 1101 1100
1 3 1080 1081 1102 1101
1 3 1081 1082 1103 1102
1 3 1082 1083 1104 1103
1 3 1083 1084 1105 1104
1 3 1084 1085 1106 1105
1 3 1085 1086 1107 1106
1 3 1086 1087 1108 1107
1 3 1087 1088 1109 1108
1 3 1088 1089 1110 1109
1 3 1089 1090 1111 1110
1 3 1090 1091 1112 1111
1 3 1092 1093 1114 1113
1 3 1093 1094 1115 1114
1 3 1094 1095 1116 1115
1 3 1095 1096 1117 1116
1 3 1096 1097 1118 1117
1 3 1097 1098 1119 1118
1 3 1098 1099 1120 1119
1 3 1099 1100 1121 1120
1 3 1100 1101 1122 1121
1 3 1101 1102 1123 1122
1 3 1102 1103 1124 1123
1 3 1103 1104 1125 1124
1 3 1104 1105 1126 1125
1 3 1105 1106 1127 1126
1 3 1106 1107 1128 1127
1 3 1107 1108 1129 1128
1 3 1108 1109 1130 1129
1 3 1109 1110 1131 1130
1 3 1110 1111 1132 1131
1 3 1111 1112 1133 1132
1 3 1113 1114 1135 1134
1 3 1114 1115 1136 1135
1 3 1115 1116 1137 1136
1 3 1116 1117 1138 1137
1 3 1117 1118 1139 1138
1 3 1118 1119 1140 1139
1 3 1119 1120 1141 1140
1 3 1120 1121 1142 1141
1 3 1121 1122 1143 1142
1 3 1122 1123 1144 1143
1 3 1123 1124 1145 1144
1 3 1124 1125 1146 1145
1 3 1125 1126 1147 1146
1 3 1126 1127 1148 1147
1 3 1127 1128 1149 1148
1 3 1128 1129 1150 1149
1 3 1129 1130 1151 1150
1 3 1130 1131 1152 1151
1 3 1131 1132 1153 1152
1 3 1132 1133 1154 1153
1 3 1134 1135 1156 1155
1 3 1135 1136 1157 1156
1 3 1136 1137 1158 1157
1 3 1137 1138 1159 1158
1 3 1138 1139 1160 1159
1 3 1139 1140 1161 1160
1 3 1140 1141 1162 1161
1 3 1141 1142 1163 1162
1 3 1142 1143 1164 1163
1 3 1143 1144 1165 1164
1 3 1144 1145 1166 1165
1 3 1145 1146 1167 1166
1 3 1146 1147 1168 1167
1 3 1147 1148 1169 1168
1 3 1148 1149 1170 1169
1 3 1149 1150 1171 1170
1 3 1150 1151 1172 1171
1 3 1151 1152 1173 1172
1 3 1152 1153 1174 1173
1 3 1153 1154 1175 1174
1 3 1155 1156 1177 1176
1 3 1156 1157 1178 1177
1 3 1157 1158 1179 1178
1 3 1158 1159 1180 1179
1 3 1159 1160 1181 1180
1 3 1160 1161 1182 1181
1 3 1161 1162 1183 1182
1 3 1162 1163 1184 1183
1 3 1163 1164 1185 1184
1 3 1164 1165 1186 1185
1 3 1165 1166 1187 1186
1 3 1166 1167 1188 1187
1 3 1167 1168 1189 1188
1 3 1168 1169 1190 1189
1 3 1169 1170 1191 1190
1 3 1170 1171 1192 1191
1 3 1171 1172 1193 1192
1 3 1172 1173 1194 1193
1 3 1173 1174 1195 1194
1 3 1174 1175 1196 1195
1 3 1176 1177 1198 1197
1 3 1177 1178 1199 1198
1 3 1178 1179 1200 1199
1 3 1179 1180 1201 1200
1 3 1180 1181 1202 1201
1 3 1181 1182 1203 1202
1 3 1182 1183 1204 1203
1 3 1183 1184 1205 1204
1 3 1184 1185 1206 1205
1 3 1185 1186 1207 1206
1 3 1186 1187 1208 1207
1 3 1187 1188 1209 1208
1 3 1188 1189 1210 1209
1 3 1189 1190 1211 1210
1 3 1190 1191 1212 1211
1 3 1191 1192 1213 1212
1 3 1192 1193 1214 1213
1 3 1193 1194 1215 1214
1 3 1194 1195 1216 1215
1 3 1195 1196 1217 1216
1 3 1197 1198 1219 1218
1 3 1198 1199 1220 1219
1 3 1199 1200 1221 1220
1 3 1200 1201 1222 1221
1 3 1201 1202 1223 1222
1 3 1202 1203 1224 1223
1 3 1203 1204 1225 1224
1 3 1204 1205 1226 1225
1 3 1205 1206 1227 1226
1 3 1206 1207 1228 1227
1 3 1207 1208 1229 1228
1 3 1208 1209 1230 1229
1 3 1209 1210 1231 1230
1 3 1210 1211 1232 1231
1 3 1211 1212 1233 1232
1 3 1212 1213 1234 1233
1 3 1213 1214 1235 1234
1 3 1214 1215 1236 1235
1 3 1215 1216 1237 1236
1 3 1216 1217 1238 1237
1 3 1218 1219 1240 1239
1 3 1219 1220 1241 1240
1 3 1220 1221 1242 1241
1 3 1221 1222 1243 1242
1 3 1222 1223 1244 1243
1 3 1223 1224 1245 1244
1 3 1224 1225 1246 1245
1 3 1225 1226 1247 1246
1 3 1226 1227 1248 1247
1 3 1227 1228 1249 1248
1 3 1228 1229 1250 1249
1 3 1229 1230 1251 1250
1 3 1230 1231 1252 1251
1 3 1231 1232 1253 1252
1 3 1232 1233 1254 1253
1 3 1233 1234 1255 1254
1 3 1234 1235 1256 1255
1 3 1235 1236 1257 1256
1 3 1236 1237 1258 1257
1 3 1237 1238 1259 1258
1 3 1239 1240 1261 1260
1 3 1240 1241 1262 1261
1 3 1241 1242 1263 1262
1 3 1242 1243 1264 1263
1 3 1243 1244 1265 1264
1 3 1244 1245 1266 1265
1 3 1245 1246 1267 1266
1 3 1246 1247 1268 1267
1 3 1247 1248 1269 1268
1 3 1248 1249 1270 1269
1 3 1249 1250 1271 1270
1 3 1250 1251 1272 1271
1 3 1251 1252 1273 1272
1 3 1252 1253 1274 1273
1 3 1253 1254 1275 1274
1 3 1254 1255 1276 1275
1 3 1255 1256 1277 1276
1 3 1256 1257 1278 1277
1 3 1257 1258 1279 1278
1 3 1258 1259 1280 1279
1 3 1260 1261 1282 1281
1 3 1261 1262 1283 1282
1 3 1262 1263 1284 1283
1 3 1263 1264 1285 1284
1 3 1264 1265 1286 1285
1 3 1265 1266 1287 1286
1 3 1266 1267 1288 1287
1 3 1267 1268 1289 1288
1 3 1268 1269 1290 1289
1 3 1269 1270 1291 1290
1 3 1270 1271 1292 1291
1 3 1271 1272 1293 1292
1 3 1272 1273 1294 1293
1 3 1273 1274 1295 1294
1 3 1274 1275 1296 1295
1 3 1275 1276 1297 1296
1 3 1276 1277 1298 1297
1 3 1277 1278 1299 1298
1 3 1278 1279 1300 1299
1 3 1279 1280 1301 1300
1 3 1281 1282 1303 1302
1 3 1282 1283 1304 1303
1 3 1283 1284 1305 1304
1 3 1284 1285 1306 1305
1 3 1285 1286 1307 1306
1 3 1286 1287 1308 1307
1 3 1287 1288 1309 1308
1 3 1288 1289 1310 1309
1 3 1289 1290 1311 1310
1 3 1290 1291 1312 1311
1 3 1291 1292 1313 1312
1 3 1292 1293 1314 1313
1 3 1293 1294 1315 1314
1 3 1294 1295 1316 1315
1 3 1295 1296 1317 1316
1 3 1296 1297 1318 1317
1 3 1297 1298 1319 1318
1 3 1298 1299 1320 1319
1 3 1299 1300 1321 1320
1 3 1300 1301 1322 1321
1 3 1302 1303 1324 1323
1 3 1303 1304 1325 1324
1 3 1304 1305 1326 1325
1 3 1305 1306 1327 1326
1 3 1306 1307 1328 1327
1 3 1307 1308 1329 1328
1 3 1308 1309 1330 1329
1 3 1309 1310 1331 1330
1 3 1310 1311 1332 1331
1 3 1311 1312 1333 1332
1 3 1312 1313 1334 1333
1 3 1313 1314 1335 1334
1 3 1314 1315 1336 1335
1 3 1315 1316 1337 1336
1 3 1316 1317 1338 1337
1 3 1317 1318 1339 1338
1 3 1318 1319 1340 1339
1 3 1319 1320 1341 1340
1 3 1320 1321 1342 1341
1 3 1321 1322 1343 1342
1 3 1323 1324 1345 1344
1 3 1324 1325 1346 1345
1 3 1325 1326 1347 1346
1 3 1326 1327 1348 1347
1 3 1327 1328 1349 1348
1 3 1328 1329 1350 1349
1 3 1329 1330 1351 1350
1 3 1330 1331 1352 1351
1 3 1331 1332 1353 1352
1 3 1332 1333 1354 1353
1 3 1333 1334 1355 1354
1 3 1334 1335 1356 1355
1 3 1335 1336 1357 1356
1 3 1336 1337 1358 1357
1 3 1337 1338 1359 1358
1 3 1338 1339 1360 1359
1 3 1339 1340 1361 1360
1 3 1340 1341 1362 1361
1 3 1341 1342 1363 1362
1 3 1342 1343 1364 1363
1 3 1344 1345 1366 1365
1 3 1345 1346 1367 1366
1 3 1346 1347 1368 1367
1 3 1347 1348 1369 1368
1 3 1348 1349 1370 1369
1 3 1349 1350 1371 1370
1 3 1350 1351 1372 1371
1 3 1351 1352 1373 1372
1 3 1352 1353 1374 1373
1 3 1353 1354 1375 1374
1 3 1354 1355 1376 1375
1 3 1355 1356 1377 1376
1 3 1356 1357 1378 1377
1 3 1357 1358 1379 1378
1 3 1358 1359 1380 1379
1 3 1359 1360 1381 1380
1 3 1360 1361 1382 1381
1 3 1361 1362 1383 1382
1 3 1362 1363 1384 1383
1 3 1363 1364 1385 1384
1 3 1365 1366 1387 1386
1 3 1366 1367 1388 1387
1 3 1367 1368 1389 1388
1 3 1368 1369 1390 1389
1 3 1369 1370 1391 1390
1 3 1370 1371 1392 1391
1 3 1371 1372 1393 1392
1 3 1372 1373 1394 1393
1 3 1373 1374 1395 1394
1 3 1374 1375 1396 1395
1 3 1375 1376 1397 1396
1 3 1376 1377 1398 1397
1 3 1377 1378 1399 1398
1 3 1378 1379 1400 1399
1 3 1379 1380 1401 1400
1 3 1380 1381 1402 1401
1 3 1381 1382 1403 1402
1 3 1382 1383 1404 1403
1 3 1383 1384 1405 1404
1 3 1384 1385 1406 1405
1 3 1386 1387 1408 1407
1 3 1387 1388 1409 1408
1 3 1388 1389 1410 1409
1 3 1389 1390 1411 1410
1 3 1390 1391 1412 1411
1 3 1391 1392 1413 1412
1 3 1392 1393 1414 1413
1 3 1393 1394 1415 1414
1 3 1394 1395 1416 1415
1 3 1395 1396 1417 1416
1 3 1396 1397 1418 1417
1 3 1397 1398 1419 1418
1 3 1398 1399 1420 1419
1 3 1399 1400 1421 1420
1 3 1400 1401 1422 1421
1 3 1401 1402 1423 1422
1 3 1402 1403 1424 1423
1 3 1403 1404 1425 1424
1 3 1404 1405 1426 1425
1 3 1405 1406 1427 1426
1 3 1407 1408 1429 1428
1 3 1408 1409 1430 1429
1 3 1409 1410 1431 1430
1 3 1410 1411 1432 1431
1 3 1411 1412 1433 1432
1 3 1412 1413 1434 1433
1 3 1413 1414 1435 1434
1 3 1414 1415 1436 1435
1 3 1415 1416 1437 1436
1 3 1416 1417 1438 1437
1 3 1417 1418 1439 1438
1 3 1418 1419 1440 1439
1 3 1419 1420 1441 1440
1 3 1420 1421 1442 1441
1 3 1421 1422 1443 1442
1 3 1422 1423 1444 1443
1 3 1423 1424 1445 1444
1 3 1424 1425 1446 1445
1 3 1425 1426 1447 1446
1 3 1426 1427 1448 1447
1 3 1428 1429 1450 1449
1 3 1429 1430 1451 1450
1 3 1430 1431 1452 1451
1 3 1431 1432 1453 1452
1 3 1432 1433 1454 1453
1 3 1433 1434 1455 1454
1 3 1434 1435 1456 1455
1 3 1435 1436 1457 1456
1 3 1436 1437 1458 1457
1 3 1437 1438 1459 1458
1 3 1438 1439 1460 1459
1 3 1439 1440 1461 1460
1 3 1440 1441 1462 1461
1 3 1441 1442 1463 1462
1 3 1442 1443 1464 1463
1 3 1443 1444 1465 1464
1 3 1444 1445 1466 1465
1 3 1445 1446 1467 1466
1 3 1446 1447 1468 1467
1 3 1447 1448 1469 1468
1 3 1449 1450 1471 1470
1 3 1450 1451 1472 1471
1 3 1451 1452 1473 1472
1 3 1452 1453 1474 1473
1 3 1453 1454 1475 1474
1 3 1454 1455 1476 1475
1 3 1455 1456 1477 1476
1 3 1456 1457 1478 1477
1 3 1457 1458 1479 1478
1 3 1458 1459 1480 1479
1 3 1459 1460 1481 1480
1 3 1460 1461 1482 1481
1 3 1461 1462 1483 1482
1 3 1462 1463 1484 1483
1 3 1463 1464 1485 1484
1 3 1464 1465 1486 1485
1 3 1465 1466 1487 1486
1 3 1466 1467 1488 1487
1 3 1467 1468 1489 1488
1 3 1468 1469 1490 1489
1 3 1470 1471 1492 1491
1 3 1471 1472 1493 1492
1 3 1472 1473 1494 1493
1 3 1473 1474 1495 1494
1 3 1474 1475 1496 1495
1 3 1475 1476 1497 1496
1 3 1476 1477 1498 1497
1 3 1477 1478 1499 1498
1 3 1478 1479 1500 1499
1 3 1479 1480 1501 1500
1 3 1480 1481 1502 1501
1 3 1481 1482 1503 1502
1 3 1482 1483 1504 1503
1 3 1483 1484 1505 1504
1 3 1484 1485 1506 1505
1 3 1485 1486 1507 1506
1 3 1486 1487 1508 1507
1 3 1487 1488 1509 1508
1 3 1488 1489 1510 1509
1 3 1489 1490 1511 1510
1 3 1491 1492 1513 1512
1 3 1492 1493 1514 1513
1 3 1493 1494 1515 1514
1 3 1494 1495 1516 1515
1 3 1495 1496 1517 1516
1 3 1496 1497 1518 1517
1 3 1497 1498 1519 1518
1 3 1498 1499 1520 1519
1 3 1499 1500 1521 1520
1 3 1500 1501 1522 1521
1 3 1501 1502 1523 1522
1 3 1502 1503 1524 1523
1 3 1503 1504 1525 1524
1 3 1504 1505 1526 1525
1 3 1505 1506 1527 1526
1 3 1506 1507 1528 1527
1 3 1507 1508 1529 1528
1 3 1508 1509 1530 1529
1 3 1509 1510 1531 1530
1 3 1510 1511 1532 1531
1 3 1512 1513 1534 1533
1 3 1513 1514 1535 1534
1 3 1514 1515 1536 1535
1 3 1515 1516 1537 1536
1 3 1516 1517 1538 1537
1 3 1517 1518 1539 1538
1 3 1518 1519 1540 1539
1 3 1519 1520 1541 1540
1 3 1520 1521 1542 1541
1 3 1521 1522 1543 1542
1 3 1522 1523 1544 1543
1 3 1523 1524 1545 1544
1 3 1524 1525 1546 1545
1 3 1525 1526 1547 1546
1 3 1526 1527 1548 1547
1 3 1527 1528 1549 1548
1 3 1528 1529 1550 1549
1 3 1529 1530 1551 1550
1 3 1530 1531 1552 1551
1 3 1531 1532 1553 1552
1 3 1533 1534 1555 1554
1 3 1534 1535 1556 1555
1 3 1535 1536 1557 1556
1 3 1536 1537 1558 1557
1 3 1537 1538 1559 1558
1 3 1538 1539 1560 1559
1 3 1539 1540 1561 1560
1 3 1540 1541 1562 1561
1 3 1541 1542 1563 1562
1 3 1542 1543 1564 1563
1 3 1543 1544 1565 1564
1 3 1544 1545 1566 1565
1 3 1545 1546 1567 1566
1 3 1546 1547 1568 1567
1 3 1547 1548 1569 1568
1 3 1548 1549 1570 1569
1 3 1549 1550 1571 1570
1 3 1550 1551 1572 1571
1 3 1551 1552 1573 1572
1 3 1552 1553 1574 1573
1 3 1554 1555 1576 1575
1 3 1555 1556 1577 1576
1 3 1556 1557 1578 1577
1 3 1557 1558 1579 1578
1 3 1558 1559 1580 1579
1 3 1559 1560 1581 1580
1 3 1560 1561 1582 1581
1 3 1561 1562 1583 1582
1 3 1562 1563 1584 1583
1 3 1563 1564 1585 1584
1 3 1564 1565 1586 1585
1 3 1565 1566 1587 1586
1 3 1566 1567 1588 1587
1 3 1567 1568 1589 1588
1 3 1568 1569 1590 1589
1 3 1569 1570 1591 1590
1 3 1570 1571 1592 1591
1 3 1571 1572 1593 1592
1 3 1572 1573 1594 1593
1 3 1573 1574 1595 1594
1 3 1575 1576 1597 1596
1 3 1576 1577 1598 1597
1 3 1577 1578 1599 1598
1 3 1578 1579 1600 1599
1 3 1579 1580 1601 1600
1 3 1580 1581 1602 1601
1 3 1581 1582 1603 1602
1 3 1582 1583 1604 1603
1 3 1583 1584 1605 1604
1 3 1584 1585 1606 1605
1 3 1585 1586 1607 1606
1 3 1586 1587 1608 1607
1 3 1587 1588 1609 1608
1 3 1588 1589 1610 1609
1 3 1589 1590 1611 1610
1 3 1590 1591 1612 1611
1 3 1591 1592 1613 1612
1 3 1592 1593 1614 1613
1 3 1593 1594 1615 1614
1 3 1594 1595 1616 1615
1 3 1596 1597 1618 1617
1 3 1597 1598 1619 1618
1 3 1598 1599 1620 1619
1 3 1599 1600 1621 1620
1 3 1600 1601 1622 1621
1 3 1601 1602 1623 1622
1 3 1602 1603 1624 1623
1 3 1603 1604 1625 1624
1 3 1604 1605 1626 1625
1 3 1605 1606 1627 1626
1 3 1606 1607 1628 1627
1 3 1607 1608 1629 1628
1 3 1608 1609 1630 1629
1 3 1609 1610 1631 1630
1 3 1610 1611 1632 1631
1 3 1611 1612 1633 1632
1 3 1612 1613 1634 1633
1 3 1613 1614 1635 1634
1 3 1614 1615 1636 1635
1 3 1615 1616 1637 1636
1 3 1617 1618 1639 1638
1 3 1618 1619 1640 1639
1 3 1619 1620 1641 1640
1 3 1620 1621 1642 1641
1 3 1621 1622 1643 1642
1 3 1622 1623 1644 1643
1 3 1623 1624 1645 1644
1 3 1624 1625 1646 1645
1 3 1625 1626 1647 1646
1 3 1626 1627 1648 1647
1 3 1627 1628 1649 1648
1 3 1628 1629 1650 1649
1 3 1629 1630 1651 1650
1 3 1630 1631 1652 1651
1 3 1631 1632 1653 1652
1 3 1632 1633 1654 1653
1 3 1633 1634 1655 1654
1 3 1634 1635 1656 1655
1 3 1635 1636 1657 1656
1 3 1636 1637 1658 1657
1 3 1638 1639 1660 1659
1 3 1639 1640 1661 1660
1 3 1640 1641 1662 1661
1 3 1641 1642 1663 1662
1 3 1642 1643 1664 1663
1 3 1643 1644 1665 1664
1 3 1644 1645 1666 1665
1 3 1645 1646 1667 1666
1 3 1646 1647 1668 1667
1 3 1647 1648 1669 1668
1 3 1648 1649 1670 1669
1 3 1649 1650 1671 1670
1 3 1650 1651 1672 1671
1 3 1651 1652 1673 1672
1 3 1652 1653 1674 1673
1 3 1653 1654 1675 1674
1 3 1654 1655 1676 1675
1 3 1655 1656 1677 1676
1 3 1656 1657 1678 1677
1 3 1657 1658 1679 1678
1 3 1659 1660 1681 1680
1 3 1660 1661 1682 1681
1 3 1661 1662 1683 1682
1 3 1662 1663 1684 1683
1 3 1663 1664 1685 1684
1 3 1664 1665 1686 1685
1 3 1665 1666 1687 1686
1 3 1666 1667 1688 1687
1 3 1667 1668 1689 1688
1 3 1668 1669 1690 1689
1 3 1669 1670 1691 1690
1 3 1670 1671 1692 1691
1 3 1671 1672 1693 1692
1 3 1672 1673 1694 1693
1 3 1673 1674 1695 1694
1 3 1674 1675 1696 1695
1 3 1675 1676 1697 1696
1 3 1676 1677 1698 1697
1 3 1677 1678 1699 1698
1 3 1678 1679 1700 1699

boundary
200
1 1 1680 1659
1 1 1659 1638
1 1 1638 1617
1 1 1617 1596
1 1 1596 1575
1 1 1575 1554
1 1 1554 1533
1 1 1533 1512
1 1 1512 1491
1 1 1491 1470
1 1 1470 1449
1 1 1449 1428
1 1 1428 1407
1 1 1407 1386
1 1 1386 1365
1 1 1365 1344
1 1 1344 1323
1 1 1323 1302
1 1 1302 1281
1 1 1281 1260
1 1 1260 1239
1 1 1239 1218
1 1 1218 1197
1 1 1197 1176
1 1 1176 1155
1 1 1155 1134
1 1 1134 1113
1 1 1113 1092
1 1 1092 1071
1 1 1071 1050
1 1 1050 1029
1 1 1029 1008
1 1 1008 987
1 1 987 966
1 1 966 945
1 1 945 924
1 1 924 903
1 1 903 882
1 1 882 861
1 1 861 840
1 1 840 819
1 1 819 798
1 1 798 777
1 1 777 756
1 1 756 735
1 1 735 714
1 1 714 693
1 1 693 672
1 1 672 651
1 1 651 630
1 1 630 609
1 1 609 588
1 1 588 567
1 1 567 546
1 1 546 525
1 1 525 504
1 1 504 483
1 1 483 462
1 1 462 441
1 1 441 420
1 1 420 399
1 1 399 378
1 1 378 357
1 1 357 336
1 1 336 315
1 1 315 294
1 1 294 273
1 1 273 252
1 1 252 231
1 1 231 210
1 1 210 189
1 1 189 168
1 1 168 147
1 1 147 126
1 1 126 105
1 1 105 84
1 1 84 63
1 1 63 42
1 1 42 21
1 1 21 0
4 1 0 1
4 1 1 2
4 1 2 3
4 1 3 4
4 1 4 5
4 1 5 6
4 1 6 7
4 1 7 8
4 1 8 9
4 1 9 10
4 1 10 11
4 1 11 12
4 1 12 13
4 1 13 14
4 1 14 15
4 1 15 16
4 1 16 17
4 1 17 18
4 1 18 19
4 1 19 20
2 1 1700 1699
2 1 1699 1698
2 1 1698 1697
2 1 1697 1696
2 1 1696 1695
2 1 1695 1694
2 1 1694 1693
2 1 1693 1692
2 1 1692 1691
2 1 1691 1690
2 1 1690 1689
2 1 1689 1688
2 1 1688 1687
2 1 1687 1686
2 1 1686 1685
2 1 1685 1684
2 1 1684 1683
2 1 1683 1682
2 1 1682 1681
2 1 1681 1680
3 1 20 41
3 1 41 62
3 1 62 83
3 1 83 104
3 1 104 125
3 1 125 146
3 1 146 167
3 1 167 188
3 1 188 209
3 1 209 230
3 1 230 251
3 1 251 272
3 1 272 293
3 1 293 314
3 1 314 335
3 1 335 356
3 1 356 377
3 1 377 398
3 1 398 419
3 1 419 440
3 1 440 461
3 1 461 482
3 1 482 503
3 1 503 524
3 1 524 545
3 1 545 566
3 1 566 587
3 1 587 608
3 1 608 629
3 1 629 650
3 1 650 671
3 1 671 692
3 1 692 713
3 1 713 734
3 1 734 755
3 1 755 776
3 1 776 797
3 1 797 818
3 1 818 839
3 1 839 860
3 1 860 881
3 1 881 902
3 1 902 923
3 1 923 944
3 1 944 965
3 1 965 986
3 1 986 1007
3 1 1007 1028
3 1 1028 1049
3 1 1049 1070
3 1 1070 1091
3 1 1091 1112
3 1 1112 1133
3 1 1133 1154
3 1 1154 1175
3 1 1175 1196
3 1 1196 1217
3 1 1217 1238
3 1 1238 1259
3 1 1259 1280
3 1 1280 1301
3 1 1301 1322
3 1 1322 1343
3 1 1343 1364
3 1 1364 1385
3 1 1385 1406
3 1 1406 1427
3 1 1427 1448
3 1 1448 1469
3 1 1469 1490
3 1 1490 1511
3 1 1511 1532
3 1 1532 1553
3 1 1553 1574
3 1 1574 1595
3 1 1595 1616
3 1 1616 1637
3 1 1637 1658
3 1 1658 1679
3 1 1679 1700

vertices
1701
2
0 -0.25
0 -0.2375
0 -0.225
0 -0.2125
0 -0.2
0 -0.1875
0 -0.175
0 -0.1625
0 -0.15
0 -0.1375
0 -0.125
0 -0.1125
0 -0.09999999999999995
0 -0.08749999999999999
0 -0.07499999999999997
0 -0.0625
0 -0.04999999999999998
0 -0.03749999999999999
0 -0.02499999999999999
0 -0.01249999999999998
0 0
0.01250000000000006 -0.25
0.01250000000000006 -0.2375
0.01250000000000006 -0.225
0.01250000000000005 -0.2125
0.01250000000000005 -0.2
0.01250000000000005 -0.1875000000000001
0.01250000000000005 -0.175
0.01250000000000004 -0.1624999999999999
0.01250000000000004 -0.15
0.01250000000000004 -0.1375
0.01250000000000003 -0.125
0.01250000000000003 -0.1125
0.01250000000000002 -0.09999999999999995
0.01250000000000002 -0.08749999999999999
0.01250000000000002 -0.07499999999999996
0.01250000000000002 -0.0625
0.01250000000000002 -0.04999999999999998
0.01250000000000001 -0.03749999999999999
0.01250000000000001 -0.02499999999999999
0.0125 -0.01249999999999998
0.0125 0
0.02500000000000003 -0.25
0.02500000000000003 -0.2375
0.02500000000000003 -0.225
0.02500000000000003 -0.2125
0.02500000000000002 -0.2
0.02500000000000002 -0.1875
0.02500000000000002 -0.175
0.02500000000000003 -0.1625
0.02500000000000001 -0.15
0.02500000000000002 -0.1375
0.02500000000000002 -0.125
0.02500000000000002 -0.1125
0.02500000000000002 -0.09999999999999995
0.025 -0.08749999999999999
0.02500000000000001 -0.07499999999999996
0.02500000000000001 -0.0625
0.02500000000000001 -0.04999999999999999
0.02500000000000001 -0.03749999999999999
0.025 -0.02499999999999999
0.025 -0.01249999999999998
0.025 0
0.03750000000000014 -0.25
0.03750000000000015 -0.2375
0.03750000000000013 -0.225
0.03750000000000012 -0.2125
0.03750000000000012 -0.2
0.03750000000000011 -0.1875
0.0375000000000001 -0.175
0.03750000000000011 -0.1625
0.03750000000000009 -0.15
0.03750000000000008 -0.1375
0.03750000000000007 -0.125
0.03750000000000007 -0.1125
0.03750000000000006 -0.09999999999999995
0.03750000000000005 -0.08750000000000001
0.03750000000000005 -0.07499999999999996
0.03750000000000004 -0.0625
0.03750000000000003 -0.04999999999999998
0.03750000000000001 -0.03749999999999999
0.03750000000000002 -0.02499999999999999
0.03750000000000001 -0.01249999999999998
0.03750000000000001 0
0.05000000000000006 -0.25
0.05000000000000006 -0.2375
0.05000000000000005 -0.225
0.05000000000000005 -0.2125
0.05000000000000004 -0.2
0.05000000000000004 -0.1875
0.05000000000000005 -0.175
0.05000000000000005 -0.1625
0.05000000000000003 -0.15
0.05000000000000003 -0.1375
0.05000000000000004 -0.125
0.05000000000000004 -0.1125
0.05000000000000001 -0.09999999999999995
0.05000000000000002 -0.08749999999999997
0.05000000000000002 -0.07499999999999996
0.05000000000000001 -0.0625
0.05000000000000001 -0.04999999999999999
0.05 -0.03749999999999999
0.05 -0.02499999999999999
0.05000000000000001 -0.01249999999999998
0.05 0
0.06249999999999994 -0.25
0.06249999999999994 -0.2375
0.06249999999999994 -0.225
0.06249999999999994 -0.2125
0.06249999999999995 -0.2
0.06249999999999997 -0.1875
0.06249999999999996 -0.175
0.06249999999999996 -0.1625
0.06249999999999997 -0.15
0.06249999999999997 -0.1375
0.06249999999999997 -0.125
0.06249999999999997 -0.1125
0.06249999999999997 -0.09999999999999998
0.06249999999999998 -0.08749999999999999
0.06249999999999999 -0.07499999999999998
0.06249999999999999 -0.0625
0.06249999999999999 -0.05
0.06249999999999999 -0.03750000000000001
0.06249999999999999 -0.02499999999999999
0.0625 -0.01249999999999998
0.0625 0
0.07500000000000004 -0.25
0.07500000000000004 -0.2375
0.07500000000000004 -0.225
0.07500000000000004 -0.2125
0.07500000000000004 -0.2
0.07500000000000005 -0.1875
0.07500000000000005 -0.175
0.07500000000000005 -0.1625
0.07500000000000002 -0.15
0.07500000000000002 -0.1375
0.07500000000000002 -0.125
0.07500000000000002 -0.1125
0.075 -0.09999999999999996
0.07500000000000002 -0.08749999999999999
0.075 -0.07499999999999996
0.075 -0.0625
0.07500000000000001 -0.04999999999999999
0.07500000000000001 -0.03749999999999998
0.07500000000000001 -0.02499999999999999
0.07500000000000001 -0.01249999999999998
0.07500000000000001 0
0.08750000000000002 -0.25
0.08750000000000002 -0.2375
0.08750000000000002 -0.225
0.08750000000000002 -0.2125
0.08750000000000002 -0.2
0.08750000000000004 -0.1875
0.08750000000000004 -0.175
0.08750000000000004 -0.1625
0.08750000000000001 -0.15
0.08750000000000001 -0.1375
0.08750000000000001 -0.125
0.08749999999999998 -0.1125
0.08749999999999998 -0.09999999999999998
0.08749999999999998 -0.08749999999999999
0.08749999999999998 -0.07499999999999996
0.08750000000000001 -0.0625
0.08749999999999999 -0.04999999999999999
0.08749999999999999 -0.03749999999999999
0.08749999999999999 -0.02499999999999999
0.08749999999999999 -0.01249999999999998
0.08749999999999999 0
0.09999999999999995 -0.25
0.09999999999999995 -0.2375
0.09999999999999995 -0.225
0.09999999999999994 -0.2125
0.09999999999999999 -0.2
0.09999999999999996 -0.1875
0.09999999999999999 -0.175
0.09999999999999999 -0.1625
0.09999999999999998 -0.15
0.09999999999999998 -0.1375
0.09999999999999998 -0.125
0.09999999999999998 -0.1125
0.09999999999999998 -0.09999999999999995
0.09999999999999996 -0.08750000000000002
0.09999999999999996 -0.07499999999999998
0.09999999999999999 -0.0625
0.1 -0.04999999999999999
0.1 -0.0375
0.1 -0.02499999999999999
0.1 -0.01249999999999998
0.1 0
0.1125000000000001 -0.25
0.1125000000000001 -0.2375
0.1125 -0.225
0.1125 -0.2125
0.1125 -0.2
0.1125 -0.1875
0.1125 -0.175
0.1125 -0.1625
0.1125 -0.15
0.1125 -0.1375
0.1125000000000001 -0.125
0.1125000000000001 -0.1125
0.1125 -0.09999999999999998
0.1125 -0.08750000000000002
0.1125 -0.07499999999999998
0.1125 -0.0625
0.1125 -0.04999999999999999
0.1125 -0.03749999999999999
0.1125 -0.02499999999999999
0.1125 -0.01249999999999998
0.1125 0
0.1250000000000001 -0.25
0.1250000000000001 -0.2375
0.1250000000000001 -0.225
0.1250000000000001 -0.2125
0.1250000000000001 -0.2
0.1250000000000001 -0.1875
0.1250000000000001 -0.175
0.1250000000000001 -0.1625
0.125 -0.15
0.125 -0.1375
0.125 -0.125
0.125 -0.1125
0.125 -0.09999999999999995
0.125 -0.08749999999999999
0.125 -0.07499999999999996
0.125 -0.0625
0.125 -0.04999999999999999
0.125 -0.03749999999999999
0.125 -0.02499999999999999
0.125 -0.01249999999999998
0.125 0
0.1375 -0.25
0.1375 -0.2375
0.1375 -0.225
0.1375 -0.2125
0.1375 -0.2
0.1375 -0.1875
0.1375 -0.175
0.1375 -0.1625
0.1375 -0.15
0.1375 -0.1375
0.1375 -0.125
0.1375 -0.1125
0.1375 -0.09999999999999996
0.1375 -0.08749999999999999
0.1375 -0.07499999999999997
0.1375 -0.0625
0.1375 -0.05
0.1375 -0.03750000000000001
0.1375 -0.02499999999999999
0.1375 -0.01249999999999998
0.1375 0
0.1500000000000002 -0.25
0.1500000000000002 -0.2375
0.1500000000000002 -0.225
0.1500000000000002 -0.2125
0.1500000000000002 -0.2
0.1500000000000002 -0.1875
0.1500000000000002 -0.175
0.1500000000000002 -0.1625
0.1500000000000001 -0.15
0.1500000000000001 -0.1375
0.1500000000000001 -0.125
0.1500000000000001 -0.1125
0.1500000000000002 -0.09999999999999995
0.1500000000000001 -0.08749999999999999
0.1500000000000001 -0.07499999999999996
0.15 -0.0625
0.1500000000000001 -0.05
0.1500000000000001 -0.03749999999999999
0.1500000000000001 -0.025
0.1500000000000001 -0.01249999999999998
0.15 0
0.1625000000000001 -0.25
0.1625000000000001 -0.2375
0.1625000000000001 -0.225
0.1625000000000001 -0.2125
0.1625000000000001 -0.2
0.1625000000000001 -0.1874999999999999
0.1625000000000001 -0.175
0.1625000000000001 -0.1625
0.1625 -0.15
0.1625000000000001 -0.1375
0.1625 -0.125
0.1625 -0.1125
0.1625 -0.09999999999999998
0.1625 -0.08749999999999999
0.1625 -0.07499999999999998
0.1625 -0.0625
0.1625 -0.04999999999999999
0.1625 -0.03749999999999999
0.1625000000000001 -0.02499999999999999
0.1625 -0.01249999999999998
0.1625 0
0.1750000000000001 -0.25
0.1750000000000001 -0.2375
0.1750000000000001 -0.2250000000000001
0.1750000000000001 -0.2125
0.1750000000000001 -0.2
0.1750000000000001 -0.1875
0.1750000000000001 -0.175
0.1750000000000001 -0.1625
0.175 -0.15
0.1750000000000001 -0.1375
0.175 -0.125
0.175 -0.1125
0.175 -0.09999999999999995
0.175 -0.08749999999999999
0.175 -0.07499999999999998
0.175 -0.0625
0.175 -0.04999999999999999
0.1750000000000001 -0.03749999999999999
0.1750000000000001 -0.02499999999999999
0.1750000000000001 -0.01249999999999999
0.175 0
0.1875000000000002 -0.25
0.1875000000000002 -0.2375
0.1875000000000002 -0.225
0.1875000000000002 -0.2125
0.1875000000000002 -0.2
0.1875000000000002 -0.1875
0.1875000000000001 -0.175
0.1875000000000001 -0.1625
0.1875000000000001 -0.15
0.1875000000000001 -0.1375
0.1875000000000001 -0.125
0.1875000000000001 -0.1125
0.1875 -0.09999999999999998
0.1875000000000001 -0.08749999999999999
0.1875000000000001 -0.07499999999999998
0.1875000000000001 -0.0625
0.1875 -0.04999999999999998
0.1875 -0.03749999999999999
0.1875 -0.02499999999999999
0.1875 -0.01249999999999998
0.1875 0
0.2000000000000002 -0.25
0.2000000000000001 -0.2375
0.2000000000000002 -0.225
0.2000000000000002 -0.2125
0.2000000000000002 -0.2
0.2000000000000002 -0.1875
0.2000000000000001 -0.175
0.2000000000000001 -0.1625
0.2000000000000001 -0.15
0.2000000000000001 -0.1375
0.2000000000000001 -0.125
0.2000000000000001 -0.1125
0.2000000000000001 -0.09999999999999996
0.2000000000000001 -0.08749999999999999
0.2000000000000001 -0.07499999999999998
0.2000000000000001 -0.0625
0.2000000000000001 -0.04999999999999999
0.2 -0.03750000000000001
0.2 -0.02499999999999999
0.2 -0.01249999999999998
0.2 0
0.2125000000000002 -0.25
0.2125000000000002 -0.2375
0.2125000000000002 -0.225
0.2125000000000002 -0.2125
0.2125000000000002 -0.2
0.2125000000000002 -0.1875
0.2125000000000002 -0.175
0.2125000000000002 -0.1625
0.2125000000000001 -0.15
0.2125000000000001 -0.1375
0.2125000000000001 -0.125
0.2125000000000001 -0.1125
0.2125000000000002 -0.09999999999999998
0.2125000000000001 -0.08749999999999999
0.2125000000000001 -0.07499999999999998
0.2125000000000001 -0.0625
0.2125000000000001 -0.04999999999999999
0.2125 -0.03750000000000001
0.2125 -0.02499999999999999
0.2125 -0.01249999999999998
0.2125 0
0.2250000000000002 -0.25
0.2250000000000002 -0.2375
0.2250000000000002 -0.225
0.2250000000000002 -0.2125
0.2250000000000001 -0.2
0.2250000000000001 -0.1875
0.2250000000000001 -0.175
0.2250000000000001 -0.1625
0.2250000000000001 -0.15
0.2250000000000001 -0.1375
0.2250000000000001 -0.125
0.2250000000000001 -0.1125
0.2250000000000001 -0.09999999999999995
0.2250000000000001 -0.08749999999999997
0.225 -0.07499999999999996
0.225 -0.0625
0.225 -0.04999999999999999
0.225 -0.03749999999999999
0.225 -0.02499999999999999
0.225 -0.01249999999999998
0.225 0
0.2375000000000002 -0.25
0.2375000000000002 -0.2375
0.2375000000000002 -0.225
0.2375000000000002 -0.2125
0.2375000000000002 -0.2
0.2375000000000002 -0.1875
0.2375000000000002 -0.175
0.2375000000000002 -0.1625
0.2375000000000001 -0.15
0.2375000000000001 -0.1375
0.2375000000000001 -0.125
0.2375000000000001 -0.1125
0.2375000000000001 -0.09999999999999998
0.2375 -0.08749999999999999
0.2375 -0.07499999999999998
0.2375 -0.0625
0.2375 -0.04999999999999999
0.2375000000000001 -0.03749999999999999
0.2375 -0.02499999999999999
0.2375 -0.01249999999999998
0.2375 0
0.2500000000000002 -0.25
0.2500000000000002 -0.2375
0.2500000000000002 -0.225
0.2500000000000002 -0.2125
0.2500000000000002 -0.2
0.2500000000000002 -0.1875
0.2500000000000002 -0.1749999999999999
0.2500000000000001 -0.1625
0.2500000000000001 -0.15
0.2500000000000001 -0.1375
0.2500000000000001 -0.125
0.2500000000000001 -0.1125
0.2500000000000001 -0.09999999999999998
0.2500000000000002 -0.08749999999999999
0.2500000000000001 -0.07500000000000001
0.2500000000000001 -0.0625
0.2500000000000001 -0.04999999999999999
0.2500000000000001 -0.03750000000000001
0.25 -0.02499999999999999
0.25 -0.01249999999999998
0.25 0
0.2625000000000004 -0.25
0.2625000000000004 -0.2375
0.2625000000000005 -0.225
0.2625000000000003 -0.2125
0.2625000000000002 -0.2
0.2625000000000003 -0.1874999999999999
0.2625000000000003 -0.175
0.2625000000000003 -0.1625
0.2625000000000002 -0.15
0.2625000000000002 -0.1375
0.2625000000000002 -0.125
0.2625000000000002 -0.1125
0.2625000000000002 -0.09999999999999995
0.2625000000000002 -0.08749999999999999
0.2625000000000001 -0.07499999999999998
0.2625 -0.0625
0.2625000000000001 -0.04999999999999999
0.2625000000000001 -0.03749999999999999
0.2625000000000001 -0.02499999999999999
0.2625000000000001 -0.01249999999999998
0.2625 0
0.2750000000000004 -0.25
0.2750000000000004 -0.2375
0.2750000000000004 -0.225
0.2750000000000003 -0.2125
0.2750000000000003 -0.2
0.2750000000000002 -0.1875
0.2750000000000002 -0.175
0.2750000000000002 -0.1625
0.2750000000000002 -0.15
0.2750000000000003 -0.1375
0.2750000000000002 -0.125
0.2750000000000002 -0.1125
0.2750000000000001 -0.09999999999999998
0.2750000000000001 -0.08749999999999999
0.2750000000000001 -0.07499999999999998
0.2750000000000001 -0.0625
0.2750000000000001 -0.04999999999999999
0.2750000000000001 -0.03749999999999999
0.2750000000000001 -0.025
0.275 -0.01249999999999998
0.275 0
0.2875000000000003 -0.25
0.2875000000000003 -0.2375
0.2875000000000003 -0.225
0.2875000000000003 -0.2125
0.2875000000000003 -0.2
0.2875000000000003 -0.1875
0.2875000000000002 -0.175
0.2875000000000002 -0.1625
0.2875000000000002 -0.15
0.2875000000000002 -0.1375
0.2875000000000003 -0.125
0.2875000000000003 -0.1125
0.2875000000000001 -0.09999999999999996
0.2875000000000001 -0.08750000000000002
0.2875000000000001 -0.07499999999999998
0.2875000000000001 -0.0625
0.2875000000000001 -0.04999999999999999
0.2875000000000001 -0.03749999999999999
0.2875000000000001 -0.02499999999999999
0.2875 -0.01249999999999998
0.2875 0
0.3000000000000004 -0.25
0.3000000000000004 -0.2375
0.3000000000000004 -0.225
0.3000000000000003 -0.2125
0.3000000000000003 -0.2
0.3000000000000003 -0.1875
0.3000000000000003 -0.175
0.3000000000000003 -0.1625
0.3000000000000003 -0.15
0.3000000000000003 -0.1375
0.3000000000000002 -0.125
0.3000000000000001 -0.1125
0.3000000000000002 -0.09999999999999998
0.3000000000000002 -0.08750000000000002
0.3000000000000002 -0.07499999999999998
0.3000000000000002 -0.0625
0.3000000000000001 -0.04999999999999999
0.3 -0.03750000000000001
0.3000000000000001 -0.02499999999999999
0.3 -0.01249999999999998
0.3 0
0.3125000000000004 -0.25
0.3125000000000004 -0.2375
0.3125000000000004 -0.225
0.3125000000000004 -0.2125
0.3125000000000003 -0.2
0.3125000000000003 -0.1875
0.3125000000000003 -0.175
0.3125000000000003 -0.1625
0.3125000000000002 -0.15
0.3125000000000002 -0.1375
0.3125000000000002 -0.125
0.3125000000000002 -0.1125
0.3125000000000002 -0.09999999999999998
0.3125000000000002 -0.08749999999999999
0.3125000000000001 -0.07499999999999998
0.3125000000000001 -0.0625
0.3125000000000001 -0.04999999999999999
0.3125000000000001 -0.03749999999999999
0.3125000000000001 -0.02499999999999999
0.3125 -0.01249999999999998
0.3125 0
0.3250000000000004 -0.25
0.3250000000000004 -0.2375
0.3250000000000003 -0.2250000000000001
0.3250000000000003 -0.2125
0.3250000000000003 -0.2
0.3250000000000003 -0.1874999999999999
0.3250000000000003 -0.175
0.3250000000000003 -0.1625
0.3250000000000001 -0.15
0.3250000000000002 -0.1375
0.3250000000000002 -0.125
0.3250000000000002 -0.1125
0.3250000000000002 -0.09999999999999998
0.325 -0.08749999999999999
0.3250000000000001 -0.07499999999999998
0.3250000000000001 -0.0625
0.3250000000000001 -0.04999999999999998
0.325 -0.03749999999999999
0.325 -0.02499999999999999
0.325 -0.01249999999999999
0.325 0
0.3375000000000005 -0.25
0.3375000000000005 -0.2375000000000001
0.3375000000000004 -0.225
0.3375000000000003 -0.2125
0.3375000000000004 -0.2
0.3375000000000004 -0.1875
0.3375000000000004 -0.175
0.3375000000000003 -0.1625
0.3375000000000002 -0.15
0.3375000000000002 -0.1375
0.3375000000000002 -0.125
0.3375000000000002 -0.1125
0.3375000000000002 -0.09999999999999998
0.3375000000000002 -0.08749999999999999
0.3375000000000001 -0.07499999999999998
0.3375000000000001 -0.0625
0.3375000000000001 -0.04999999999999999
0.3375000000000001 -0.03749999999999999
0.3375000000000001 -0.02499999999999999
0.3375 -0.01249999999999998
0.3375 0
0.3500000000000004 -0.25
0.3500000000000004 -0.2375
0.3500000000000005 -0.225
0.3500000000000004 -0.2125
0.3500000000000004 -0.2
0.3500000000000003 -0.1875
0.3500000000000003 -0.175
0.3500000000000003 -0.1625
0.3500000000000003 -0.15
0.3500000000000004 -0.1375
0.3500000000000002 -0.125
0.3500000000000002 -0.1125
0.3500000000000002 -0.09999999999999998
0.3500000000000003 -0.08749999999999999
0.3500000000000001 -0.07499999999999998
0.3500000000000001 -0.0625
0.3500000000000001 -0.04999999999999999
0.3500000000000001 -0.03750000000000001
0.3500000000000001 -0.02499999999999999
0.3500000000000001 -0.01249999999999998
0.35 0
0.3625000000000004 -0.25
0.3625000000000004 -0.2375
0.3625000000000004 -0.225
0.3625000000000004 -0.2125
0.3625000000000004 -0.2
0.3625000000000003 -0.1875000000000001
0.3625000000000003 -0.175
0.3625000000000002 -0.1625
0.3625000000000003 -0.15
0.3625000000000003 -0.1375
0.3625000000000003 -0.125
0.3625000000000003 -0.1125
0.3625000000000001 -0.09999999999999998
0.3625000000000002 -0.08749999999999999
0.3625000000000002 -0.07499999999999998
0.3625000000000002 -0.0625
0.3625000000000002 -0.04999999999999999
0.3625000000000001 -0.03749999999999999
0.3625 -0.02499999999999999
0.3625 -0.01249999999999998
0.3625 0
0.3750000000000005 -0.25
0.3750000000000005 -0.2375
0.3750000000000004 -0.225
0.3750000000000004 -0.2125000000000001
0.3750000000000005 -0.2
0.3750000000000004 -0.1874999999999999
0.3750000000000003 -0.175
0.3750000000000003 -0.1625
0.3750000000000004 -0.15
0.3750000000000003 -0.1375
0.3750000000000002 -0.125
0.3750000000000002 -0.1125
0.3750000000000002 -0.09999999999999998
0.3750000000000003 -0.08749999999999999
0.3750000000000001 -0.07499999999999998
0.3750000000000001 -0.0625
0.3750000000000001 -0.04999999999999999
0.3750000000000001 -0.03749999999999999
0.3750000000000001 -0.02499999999999999
0.375 -0.01249999999999999
0.375 0
0.3875000000000005 -0.25
0.3875000000000005 -0.2375
0.3875000000000004 -0.225
0.3875000000000004 -0.2125
0.3875000000000004 -0.2
0.3875000000000005 -0.1875
0.3875000000000003 -0.175
0.3875000000000002 -0.1625
0.3875000000000003 -0.15
0.3875000000000003 -0.1375
0.3875000000000003 -0.125
0.3875000000000003 -0.1125
0.3875000000000001 -0.09999999999999998
0.3875000000000002 -0.08749999999999999
0.3875000000000002 -0.07499999999999998
0.3875000000000002 -0.0625
0.3875000000000002 -0.04999999999999999
0.3875000000000001 -0.03749999999999999
0.3875 -0.02499999999999999
0.3875000000000001 -0.01249999999999999
0.3875000000000001 0
0.4000000000000006 -0.25
0.4000000000000006 -0.2375
0.4000000000000005 -0.225
0.4000000000000005 -0.2124999999999999
0.4000000000000005 -0.2
0.4000000000000005 -0.1875
0.4000000000000003 -0.175
0.4000000000000004 -0.1625
0.4000000000000004 -0.15
0.4000000000000004 -0.1375
0.4000000000000003 -0.125
0.4000000000000002 -0.1125
0.4000000000000002 -0.09999999999999998
0.4000000000000002 -0.08749999999999999
0.4000000000000002 -0.07499999999999998
0.4000000000000002 -0.0625
0.4000000000000001 -0.04999999999999999
0.4000000000000001 -0.03750000000000001
0.4000000000000001 -0.02499999999999999
0.4 -0.01249999999999999
0.4 0
0.4125000000000005 -0.25
0.4125000000000005 -0.2375000000000001
0.4125000000000005 -0.225
0.4125000000000005 -0.2125
0.4125000000000004 -0.2
0.4125000000000004 -0.1875
0.4125000000000003 -0.175
0.4125000000000004 -0.1625
0.4125000000000003 -0.15
0.4125000000000003 -0.1375
0.4125000000000004 -0.125
0.4125000000000004 -0.1125
0.4125000000000001 -0.09999999999999998
0.4125000000000002 -0.08749999999999999
0.4125000000000002 -0.07499999999999998
0.4125000000000001 -0.0625
0.4125000000000001 -0.04999999999999999
0.4125000000000001 -0.03749999999999999
0.4125000000000001 -0.02499999999999999
0.4125000000000001 -0.01249999999999999
0.4125 0
0.4250000000000004 -0.25
0.4250000000000004 -0.2375000000000001
0.4250000000000003 -0.225
0.4250000000000003 -0.2125
0.4250000000000003 -0.2
0.4250000000000003 -0.1875
0.4250000000000003 -0.175
0.4250000000000003 -0.1625
0.4250000000000003 -0.15
0.4250000000000003 -0.1375
0.4250000000000002 -0.125
0.4250000000000001 -0.1125
0.4250000000000002 -0.09999999999999995
0.4250000000000002 -0.08749999999999999
0.4250000000000002 -0.07499999999999998
0.4250000000000002 -0.0625
0.4250000000000002 -0.04999999999999999
0.4250000000000001 -0.03750000000000001
0.4250000000000001 -0.02499999999999999
0.425 -0.01249999999999999
0.425 0
0.4375000000000004 -0.25
0.4375000000000004 -0.2375
0.4375000000000003 -0.225
0.4375000000000003 -0.2125
0.4375000000000003 -0.2
0.4375000000000003 -0.1875
0.4375000000000002 -0.175
0.4375000000000002 -0.1625
0.4375000000000002 -0.15
0.4375000000000002 -0.1375
0.4375000000000003 -0.125
0.4375000000000003 -0.1125
0.4375000000000003 -0.09999999999999998
0.4375000000000001 -0.08749999999999999
0.4375000000000001 -0.07499999999999998
0.4375000000000001 -0.0625
0.4375000000000002 -0.04999999999999999
0.4375000000000002 -0.03750000000000001
0.4374999999999999 -0.02499999999999999
0.4375 -0.01249999999999999
0.4375 0
0.4500000000000004 -0.25
0.4500000000000004 -0.2375
0.4500000000000003 -0.225
0.4500000000000005 -0.2125
0.4500000000000002 -0.2
0.4500000000000003 -0.1875
0.4500000000000003 -0.175
0.4500000000000003 -0.1625
0.4500000000000003 -0.15
0.4500000000000002 -0.1375
0.4500000000000002 -0.125
0.4500000000000002 -0.1125
0.4500000000000002 -0.09999999999999995
0.4500000000000002 -0.08749999999999999
0.4500000000000002 -0.07499999999999998
0.4500000000000001 -0.0625
0.4500000000000001 -0.04999999999999999
0.4500000000000001 -0.03749999999999999
0.4500000000000001 -0.02499999999999999
0.45 -0.01249999999999999
0.45 0
0.4625000000000003 -0.25
0.4625000000000002 -0.2375
0.4625000000000002 -0.225
0.4625000000000002 -0.2125
0.4625000000000002 -0.2
0.4625000000000002 -0.1875
0.4625000000000002 -0.175
0.4625000000000001 -0.1625
0.4625000000000003 -0.15
0.4625000000000001 -0.1375
0.4625000000000001 -0.125
0.4625000000000001 -0.1125
0.4625000000000002 -0.09999999999999998
0.4625000000000001 -0.08749999999999999
0.4625 -0.07499999999999998
0.4625000000000001 -0.0625
0.4625 -0.04999999999999999
0.4625 -0.03750000000000001
0.4625 -0.02499999999999999
0.4625000000000001 -0.01249999999999999
0.4625 0
0.4750000000000003 -0.25
0.4750000000000003 -0.2375
0.4750000000000001 -0.225
0.4750000000000002 -0.2125
0.4750000000000002 -0.2
0.4750000000000002 -0.1875
0.4750000000000002 -0.175
0.4750000000000002 -0.1625
0.4750000000000003 -0.15
0.4750000000000001 -0.1375
0.4750000000000001 -0.125
0.4750000000000001 -0.1125
0.4750000000000001 -0.09999999999999998
0.4750000000000001 -0.08749999999999999
0.4750000000000001 -0.07499999999999998
0.4750000000000001 -0.0625
0.4750000000000001 -0.04999999999999999
0.4750000000000001 -0.03750000000000001
0.4750000000000001 -0.02499999999999999
0.475 -0.01249999999999999
0.475 0
0.4875000000000002 -0.25
0.4875000000000002 -0.2375
0.4875000000000002 -0.225
0.4875000000000002 -0.2125
0.4875000000000002 -0.2
0.4875000000000002 -0.1875
0.4875000000000002 -0.175
0.4875000000000002 -0.1625
0.4875000000000002 -0.15
0.4875000000000002 -0.1375
0.4875000000000002 -0.125
0.4875000000000002 -0.1125
0.4875000000000002 -0.09999999999999998
0.4875 -0.08749999999999999
0.4875 -0.07499999999999998
0.4875000000000001 -0.0625
0.4875000000000001 -0.04999999999999999
0.4875 -0.03750000000000001
0.4875 -0.02499999999999999
0.4875 -0.01249999999999999
0.4875 0
0.5000000000000002 -0.25
0.5000000000000002 -0.2375
0.5000000000000002 -0.225
0.5000000000000002 -0.2125
0.5000000000000002 -0.2
0.5000000000000003 -0.1875
0.5000000000000001 -0.175
0.5000000000000001 -0.1625
0.5000000000000001 -0.15
0.5000000000000001 -0.1375
0.5000000000000001 -0.125
0.5000000000000001 -0.1125
0.5000000000000001 -0.09999999999999998
0.5000000000000001 -0.08749999999999999
0.4999999999999999 -0.07499999999999998
0.4999999999999999 -0.0625
0.5 -0.04999999999999999
0.5 -0.03750000000000001
0.5 -0.02499999999999999
0.5 -0.01249999999999999
0.5 0
0.5125000000000002 -0.25
0.5125000000000002 -0.2375
0.5125000000000002 -0.225
0.5125000000000002 -0.2125
0.5125000000000002 -0.2
0.5125000000000002 -0.1875
0.5125000000000002 -0.175
0.5125000000000002 -0.1625
0.5125000000000002 -0.15
0.5125000000000002 -0.1375
0.5125000000000003 -0.125
0.5125000000000001 -0.1125
0.5125000000000003 -0.09999999999999998
0.5125000000000003 -0.08749999999999999
0.5125000000000001 -0.07499999999999998
0.5125000000000001 -0.0625
0.5125000000000001 -0.04999999999999999
0.5125000000000001 -0.03750000000000001
0.5125000000000001 -0.02499999999999999
0.5125000000000001 -0.01249999999999999
0.5125000000000001 0
0.5250000000000002 -0.25
0.5250000000000002 -0.2375
0.5250000000000002 -0.225
0.5250000000000002 -0.2125
0.525 -0.2
0.5250000000000001 -0.1875
0.5250000000000001 -0.175
0.5250000000000001 -0.1625
0.5250000000000001 -0.15
0.5250000000000001 -0.1375
0.5250000000000001 -0.125
0.5250000000000001 -0.1125
0.5250000000000001 -0.09999999999999998
0.5250000000000001 -0.08749999999999999
0.5250000000000001 -0.07499999999999998
0.5250000000000001 -0.0625
0.525 -0.04999999999999999
0.525 -0.03750000000000001
0.525 -0.02499999999999999
0.525 -0.01249999999999999
0.525 0
0.5375000000000003 -0.25
0.5375000000000003 -0.2375
0.5375000000000003 -0.225
0.5375000000000003 -0.2125
0.5375000000000002 -0.2
0.5375000000000002 -0.1875
0.5375000000000002 -0.175
0.5375000000000002 -0.1625
0.5375000000000002 -0.15
0.5375000000000002 -0.1375
0.5375000000000001 -0.125
0.5375000000000001 -0.1125
0.5375000000000001 -0.09999999999999998
0.5375000000000001 -0.08749999999999999
0.5375000000000001 -0.07500000000000001
0.5375000000000001 -0.0625
0.5375000000000001 -0.04999999999999999
0.5375000000000002 -0.03750000000000001
0.5375000000000002 -0.02499999999999999
0.5375000000000002 -0.01249999999999999
0.5375 0
0.5500000000000003 -0.25
0.5500000000000003 -0.2375000000000001
0.5500000000000003 -0.225
0.5500000000000003 -0.2125
0.5500000000000003 -0.2
0.5500000000000004 -0.1875
0.5500000000000002 -0.175
0.5500000000000002 -0.1625
0.5500000000000002 -0.15
0.5500000000000002 -0.1375
0.5500000000000002 -0.125
0.5500000000000002 -0.1125
0.5500000000000002 -0.09999999999999998
0.5500000000000002 -0.08749999999999999
0.5499999999999999 -0.07499999999999998
0.5499999999999999 -0.0625
0.55 -0.04999999999999999
0.55 -0.03750000000000001
0.55 -0.02499999999999999
0.55 -0.01249999999999999
0.55 0
0.5625000000000002 -0.25
0.5625000000000002 -0.2375
0.5625000000000002 -0.225
0.5625000000000002 -0.2125
0.5625000000000002 -0.2
0.5625000000000003 -0.1875
0.5625000000000001 -0.175
0.5625000000000001 -0.1625
0.5625000000000003 -0.15
0.5625000000000001 -0.1375
0.5625000000000001 -0.125
0.5625000000000001 -0.1125
0.5624999999999999 -0.09999999999999998
0.5625000000000001 -0.08749999999999999
0.5625000000000001 -0.07500000000000001
0.5624999999999999 -0.0625
0.5625 -0.04999999999999999
0.5625 -0.03750000000000001
0.5625 -0.02499999999999999
0.5625 -0.01249999999999999
0.5625 0
0.5750000000000003 -0.25
0.5750000000000003 -0.2375
0.5750000000000003 -0.225
0.5750000000000003 -0.2125
0.5750000000000001 -0.2
0.5750000000000002 -0.1875
0.5750000000000002 -0.175
0.5750000000000002 -0.1625
0.5750000000000002 -0.15
0.5750000000000002 -0.1375
0.5750000000000002 -0.125
0.5750000000000002 -0.1125
0.5750000000000002 -0.09999999999999998
0.5750000000000002 -0.08749999999999999
0.5750000000000002 -0.07499999999999998
0.5750000000000002 -0.0625
0.5750000000000003 -0.04999999999999999
0.5750000000000001 -0.03750000000000001
0.5750000000000001 -0.02499999999999999
0.5750000000000001 -0.01249999999999999
0.5750000000000001 0
0.5875000000000002 -0.25
0.5875000000000002 -0.2375
0.5875000000000002 -0.225
0.5875000000000002 -0.2125
0.5875 -0.2
0.5875000000000001 -0.1875
0.5875000000000001 -0.175
0.5875000000000001 -0.1625
0.5875000000000001 -0.15
0.5875000000000001 -0.1375
0.5875000000000001 -0.125
0.5875000000000001 -0.1125
0.5875000000000001 -0.09999999999999998
0.5875000000000001 -0.08749999999999999
0.5875000000000001 -0.07500000000000001
0.5875000000000001 -0.0625
0.5875 -0.04999999999999999
0.5875000000000002 -0.03750000000000001
0.5875 -0.02499999999999999
0.5875 -0.01249999999999999
0.5875 0
0.6000000000000002 -0.25
0.6000000000000002 -0.2375
0.6 -0.225
0.6000000000000002 -0.2125
0.6000000000000002 -0.2
0.6000000000000002 -0.1875
0.6 -0.175
0.6 -0.1625
0.6 -0.15
0.6 -0.1375
0.6000000000000001 -0.125
0.6000000000000001 -0.1125
0.6000000000000001 -0.09999999999999998
0.6000000000000001 -0.08749999999999999
0.6000000000000001 -0.07500000000000001
0.6000000000000001 -0.0625
0.6000000000000001 -0.04999999999999999
0.6000000000000001 -0.03750000000000001
0.6000000000000001 -0.02499999999999999
0.6000000000000001 -0.01249999999999999
0.6000000000000001 0
0.6125000000000003 -0.25
0.6125000000000003 -0.2375
0.6125000000000003 -0.225
0.6125000000000003 -0.2125
0.6125000000000003 -0.2
0.6125000000000004 -0.1875
0.6125000000000002 -0.175
0.6125000000000002 -0.1625
0.6125000000000002 -0.15
0.6125000000000002 -0.1375
0.6125000000000002 -0.125
0.6125000000000002 -0.1125
0.6125000000000002 -0.09999999999999998
0.6125000000000002 -0.08749999999999999
0.6125000000000002 -0.07500000000000001
0.6124999999999999 -0.0625
0.6125 -0.04999999999999999
0.6125 -0.03750000000000001
0.6125 -0.02499999999999999
0.6125 -0.01249999999999999
0.6125 0
0.6250000000000001 -0.25
0.6250000000000001 -0.2375
0.6250000000000001 -0.225
0.6250000000000001 -0.2125
0.6249999999999999 -0.2
0.6250000000000001 -0.1875
0.6249999999999999 -0.175
0.6250000000000001 -0.1625
0.6249999999999999 -0.15
0.6249999999999999 -0.1375
0.625 -0.125
0.625 -0.1125
0.625 -0.09999999999999998
0.625 -0.08749999999999999
0.625 -0.07499999999999998
0.625 -0.0625
0.625 -0.04999999999999999
0.625 -0.03750000000000001
0.625 -0.02499999999999999
0.625 -0.01249999999999999
0.625 0
0.6375000000000002 -0.25
0.6375000000000002 -0.2375000000000001
0.6375000000000002 -0.225
0.6375000000000002 -0.2125
0.6375000000000002 -0.2
0.6375000000000002 -0.1875
0.6375000000000002 -0.175
0.6375000000000002 -0.1625
0.6375000000000002 -0.15
0.6375000000000002 -0.1375
0.6375000000000001 -0.125
0.6375000000000003 -0.1125
0.6375000000000003 -0.09999999999999998
0.6375000000000001 -0.08749999999999999
0.6375000000000003 -0.07499999999999998
0.6375000000000001 -0.0625
0.6375000000000001 -0.04999999999999999
0.6375000000000001 -0.03750000000000001
0.6375000000000001 -0.02499999999999999
0.6375000000000001 -0.01249999999999999
0.6375000000000001 0
0.6500000000000002 -0.25
0.6500000000000002 -0.2375
0.65 -0.225
0.65 -0.2125
0.6500000000000001 -0.2
0.6500000000000001 -0.1875
0.6500000000000001 -0.175
0.6500000000000001 -0.1625
0.6500000000000001 -0.15
0.6500000000000001 -0.1375
0.65 -0.125
0.6500000000000002 -0.1125
0.6500000000000002 -0.09999999999999998
0.65 -0.08749999999999999
0.65 -0.07500000000000001
0.65 -0.0625
0.65 -0.04999999999999999
0.6499999999999999 -0.03750000000000001
0.6499999999999999 -0.02499999999999999
0.6499999999999999 -0.01249999999999999
0.6499999999999999 0
0.6625000000000001 -0.25
0.6625000000000001 -0.2375
0.6625000000000001 -0.225
0.6625000000000001 -0.2125
0.6625000000000001 -0.2
0.6625000000000001 -0.1875
0.6625000000000001 -0.175
0.6625000000000001 -0.1625
0.6625000000000001 -0.15
0.6625000000000001 -0.1375
0.6625000000000001 -0.125
0.6625000000000001 -0.1125
0.6625000000000001 -0.09999999999999998
0.6625000000000001 -0.08749999999999999
0.6625000000000001 -0.07500000000000001
0.6625000000000001 -0.0625
0.6625000000000001 -0.04999999999999999
0.6625000000000001 -0.03750000000000001
0.6625000000000001 -0.02499999999999999
0.6625000000000001 -0.01249999999999999
0.6625000000000001 0
0.6750000000000003 -0.25
0.6750000000000003 -0.2375
0.6750000000000003 -0.2250000000000001
0.6750000000000003 -0.2125
0.6750000000000003 -0.2
0.6750000000000002 -0.1875
0.6750000000000004 -0.175
0.6750000000000002 -0.1625
0.6750000000000002 -0.15
0.6750000000000002 -0.1375
0.6749999999999999 -0.125
0.6750000000000002 -0.1125
0.6750000000000002 -0.09999999999999998
0.6749999999999999 -0.08749999999999999
0.6749999999999999 -0.07500000000000001
0.6750000000000002 -0.0625
0.675 -0.04999999999999999
0.675 -0.03750000000000001
0.675 -0.02499999999999999
0.675 -0.01249999999999999
0.675 0
0.6875000000000001 -0.25
0.6875000000000001 -0.2375
0.6875000000000001 -0.225
0.6875000000000001 -0.2125
0.6875000000000001 -0.2
0.6875000000000001 -0.1875
0.6875000000000001 -0.175
0.6874999999999999 -0.1625
0.6874999999999999 -0.15
0.6874999999999999 -0.1375
0.6875 -0.125
0.6875 -0.1125
0.6875 -0.1
0.6875 -0.08749999999999999
0.6875 -0.07500000000000001
0.6875 -0.0625
0.6875 -0.05
0.6875 -0.03750000000000001
0.6875 -0.025
0.6875 -0.01249999999999999
0.6875 0
0.7000000000000002 -0.25
0.7000000000000002 -0.2375
0.7000000000000002 -0.225
0.7000000000000002 -0.2125
0.7000000000000002 -0.2
0.7000000000000002 -0.1875
0.7000000000000002 -0.175
0.7000000000000002 -0.1625
0.7000000000000002 -0.15
0.7000000000000002 -0.1375
0.7000000000000001 -0.125
0.7000000000000003 -0.1125
0.7000000000000003 -0.09999999999999998
0.7000000000000003 -0.08749999999999999
0.7000000000000001 -0.07500000000000001
0.7000000000000003 -0.0625
0.7000000000000003 -0.04999999999999999
0.7000000000000001 -0.03750000000000001
0.7000000000000001 -0.02499999999999999
0.7000000000000001 -0.01249999999999999
0.7000000000000001 0
0.7125000000000001 -0.25
0.7125000000000001 -0.2375
0.7125000000000001 -0.225
0.7125000000000001 -0.2125
0.7125000000000001 -0.2
0.7125000000000001 -0.1875
0.7125000000000001 -0.175
0.7125000000000001 -0.1625
0.7125000000000001 -0.15
0.7125000000000001 -0.1375
0.7125 -0.125
0.7125000000000002 -0.1125
0.7125000000000002 -0.1
0.7125 -0.08749999999999999
0.7125 -0.07500000000000001
0.7125 -0.0625
0.7125 -0.05
0.7125000000000002 -0.03750000000000001
0.7125 -0.025
0.7125 -0.01249999999999999
0.7125 0
0.7250000000000001 -0.25
0.7250000000000001 -0.2375
0.7250000000000001 -0.225
0.7250000000000001 -0.2125
0.7250000000000001 -0.2
0.7250000000000001 -0.1875
0.7250000000000001 -0.175
0.7250000000000001 -0.1625
0.7250000000000001 -0.15
0.7250000000000001 -0.1375
0.7250000000000001 -0.125
0.7250000000000001 -0.1125
0.7250000000000001 -0.09999999999999998
0.7250000000000001 -0.08749999999999999
0.7250000000000001 -0.07499999999999998
0.7250000000000001 -0.0625
0.7250000000000001 -0.04999999999999999
0.7250000000000001 -0.03750000000000001
0.7250000000000001 -0.02499999999999999
0.7250000000000001 -0.01249999999999999
0.7250000000000001 0
0.7375000000000002 -0.25
0.7375000000000002 -0.2375
0.7375000000000002 -0.2250000000000001
0.7375000000000002 -0.2125
0.7374999999999999 -0.2
0.7374999999999999 -0.1875
0.7375000000000002 -0.175
0.7374999999999999 -0.1625
0.7374999999999999 -0.15
0.7374999999999999 -0.1375
0.7375 -0.125
0.7375 -0.1125
0.7375 -0.1
0.7375 -0.08749999999999999
0.7375 -0.07500000000000001
0.7375 -0.0625
0.7375 -0.05
0.7375 -0.03750000000000001
0.7375 -0.025
0.7375 -0.01249999999999999
0.7375 0
0.7500000000000001 -0.25
0.7500000000000001 -0.2375
0.7500000000000001 -0.2250000000000001
0.7500000000000001 -0.2125
0.7500000000000001 -0.2
0.7500000000000001 -0.1875
0.7500000000000001 -0.175
0.7500000000000001 -0.1625
0.7499999999999999 -0.15
0.7499999999999999 -0.1375
0.7499999999999999 -0.125
0.7500000000000001 -0.1125
0.7500000000000001 -0.1
0.7500000000000001 -0.08749999999999999
0.7500000000000001 -0.07500000000000001
0.7500000000000001 -0.0625
0.7500000000000001 -0.04999999999999999
0.7500000000000001 -0.03750000000000001
0.7500000000000001 -0.02499999999999999
0.7500000000000001 -0.01249999999999999
0.7500000000000001 0
0.7625000000000002 -0.25
0.7625000000000002 -0.2375
0.7625000000000002 -0.225
0.7625000000000002 -0.2125
0.7625000000000002 -0.2
0.7625000000000002 -0.1875
0.7625000000000002 -0.175
0.7625000000000002 -0.1625
0.7625000000000002 -0.15
0.7625000000000002 -0.1375
0.7625000000000001 -0.125
0.7625000000000003 -0.1125
0.7625000000000003 -0.1
0.7625000000000001 -0.08749999999999999
0.7625000000000003 -0.07500000000000001
0.7625000000000001 -0.0625
0.7625000000000001 -0.05
0.7625000000000001 -0.03750000000000001
0.7625000000000001 -0.02499999999999999
0.7625000000000001 -0.0125
0.7625000000000001 0
0.7750000000000001 -0.25
0.7750000000000001 -0.2375
0.7750000000000001 -0.225
0.7750000000000001 -0.2125
0.7750000000000001 -0.2
0.775 -0.1875
0.775 -0.175
0.7750000000000002 -0.1625
0.7749999999999998 -0.15
0.775 -0.1375
0.7749999999999998 -0.125
0.775 -0.1125
0.7749999999999998 -0.1
0.7749999999999998 -0.08749999999999999
0.7749999999999998 -0.07500000000000001
0.7749999999999998 -0.0625
0.7749999999999999 -0.04999999999999999
0.7749999999999999 -0.03750000000000001
0.7749999999999999 -0.02499999999999999
0.7749999999999999 -0.0125
0.7749999999999999 0
0.7875000000000001 -0.25
0.7875000000000001 -0.2375
0.7875000000000001 -0.2250000000000001
0.7875000000000001 -0.2125
0.7875000000000001 -0.2
0.7875000000000001 -0.1875
0.7875000000000001 -0.175
0.7875000000000001 -0.1625
0.7875000000000001 -0.15
0.7875000000000001 -0.1375
0.7875000000000001 -0.125
0.7875000000000001 -0.1125
0.7875000000000001 -0.1
0.7875000000000001 -0.08749999999999999
0.7875000000000001 -0.07500000000000001
0.7875000000000001 -0.0625
0.7875000000000001 -0.05
0.7875000000000001 -0.03750000000000001
0.7875000000000001 -0.02499999999999999
0.7875000000000001 -0.0125
0.7875000000000001 0
0.8 -0.25
0.8 -0.2375000000000001
0.8 -0.2250000000000001
0.8 -0.2125
0.8 -0.2
0.8 -0.1875
0.8 -0.175
0.8 -0.1625
0.8 -0.15
0.8 -0.1375
0.8 -0.125
0.8 -0.1125
0.8 -0.1
0.8 -0.08749999999999999
0.8 -0.07500000000000001
0.8 -0.0625
0.8 -0.05
0.8 -0.03750000000000001
0.8 -0.025
0.8 -0.0125
0.8 0
0.8125 -0.25
0.8125 -0.2375
0.8125 -0.225
0.8125 -0.2125
0.8125 -0.2
0.8125 -0.1875
0.8125 -0.175
0.8125 -0.1625
0.8125 -0.15
0.8125 -0.1375
0.8125 -0.125
0.8125 -0.1125
0.8125 -0.1
0.8125 -0.08749999999999999
0.8125 -0.07500000000000001
0.8125 -0.0625
0.8125 -0.04999999999999999
0.8125 -0.03750000000000001
0.8125 -0.02499999999999999
0.8125 -0.0125
0.8125 0
0.8250000000000002 -0.25
0.8250000000000002 -0.2375
0.8250000000000002 -0.225
0.8250000000000002 -0.2125
0.8250000000000002 -0.2
0.8250000000000002 -0.1875
0.8250000000000002 -0.175
0.8250000000000002 -0.1625
0.8250000000000002 -0.15
0.8250000000000002 -0.1375
0.8250000000000002 -0.125
0.8250000000000002 -0.1125
0.8250000000000002 -0.1
0.8250000000000002 -0.08749999999999999
0.8250000000000002 -0.07500000000000001
0.8250000000000002 -0.0625
0.8250000000000002 -0.04999999999999999
0.8250000000000002 -0.03750000000000001
0.8250000000000002 -0.02499999999999999
0.8250000000000002 -0.0125
0.8250000000000002 0
0.8375000000000001 -0.25
0.8375000000000001 -0.2375
0.8375000000000001 -0.225
0.8375000000000001 -0.2125
0.8375000000000001 -0.2
0.8375 -0.1875
0.8375000000000002 -0.175
0.8375 -0.1625
0.8375 -0.15
0.8374999999999998 -0.1375
0.8374999999999998 -0.125
0.8375 -0.1125
0.8375 -0.1
0.8374999999999998 -0.08749999999999999
0.8375 -0.07500000000000001
0.8374999999999998 -0.0625
0.8374999999999999 -0.04999999999999999
0.8374999999999999 -0.03750000000000001
0.8374999999999999 -0.02499999999999999
0.8374999999999999 -0.0125
0.8374999999999999 0
0.8500000000000001 -0.25
0.8500000000000001 -0.2375
0.8500000000000001 -0.225
0.8500000000000001 -0.2125
0.8500000000000001 -0.2
0.8500000000000001 -0.1875
0.8500000000000001 -0.175
0.8500000000000001 -0.1625
0.8500000000000001 -0.15
0.8500000000000001 -0.1375
0.8500000000000001 -0.125
0.8500000000000001 -0.1125
0.8500000000000001 -0.1
0.8500000000000001 -0.08749999999999999
0.8500000000000001 -0.07500000000000001
0.8500000000000001 -0.0625
0.8500000000000001 -0.05
0.8500000000000001 -0.03750000000000001
0.8500000000000001 -0.025
0.8500000000000001 -0.0125
0.8500000000000001 0
0.8625 -0.25
0.8625 -0.2375
0.8625 -0.225
0.8625 -0.2125
0.8625 -0.2
0.8625 -0.1875
0.8625 -0.175
0.8625 -0.1625
0.8625 -0.15
0.8625 -0.1375
0.8625 -0.125
0.8625 -0.1125
0.8625 -0.1
0.8625 -0.08749999999999999
0.8625 -0.07500000000000001
0.8625 -0.0625
0.8625 -0.04999999999999999
0.8625 -0.03750000000000001
0.8625 -0.02499999999999999
0.8625 -0.0125
0.8625 0
0.875 -0.25
0.875 -0.2375
0.875 -0.225
0.875 -0.2125
0.875 -0.2
0.875 -0.1875
0.875 -0.175
0.875 -0.1625
0.875 -0.15
0.875 -0.1375
0.875 -0.125
0.875 -0.1125
0.875 -0.1
0.875 -0.08749999999999999
0.875 -0.07500000000000001
0.875 -0.0625
0.875 -0.05
0.875 -0.03750000000000001
0.875 -0.025
0.875 -0.0125
0.875 0
0.8875000000000001 -0.25
0.8875000000000001 -0.2375
0.8875000000000001 -0.225
0.8875000000000001 -0.2125
0.8874999999999998 -0.2
0.8874999999999998 -0.1875
0.8875000000000001 -0.175
0.8875000000000001 -0.1625
0.8874999999999998 -0.15
0.8875000000000001 -0.1375
0.8875 -0.125
0.8875 -0.1125
0.8875 -0.1
0.8875 -0.08749999999999999
0.8875 -0.07500000000000001
0.8875 -0.0625
0.8875 -0.04999999999999999
0.8875 -0.03750000000000001
0.8875 -0.02499999999999999
0.8875 -0.0125
0.8875 0
0.9 -0.25
0.9 -0.2375000000000001
0.9 -0.225
0.9 -0.2125
0.9 -0.2
0.9 -0.1875
0.9000000000000002 -0.175
0.9000000000000002 -0.1625
0.9 -0.15
0.9 -0.1375
0.9 -0.125
0.9 -0.1125
0.9000000000000002 -0.1
0.9000000000000002 -0.08749999999999999
0.9000000000000002 -0.07500000000000001
0.9 -0.0625
0.9 -0.05
0.9 -0.03750000000000001
0.9 -0.025
0.9 -0.0125
0.9 0
0.9125000000000001 -0.25
0.9125000000000001 -0.2375000000000001
0.9125000000000001 -0.225
0.9125000000000001 -0.2125
0.9125000000000001 -0.2
0.9125000000000001 -0.1875
0.9125000000000001 -0.175
0.9125000000000001 -0.1625
0.9125000000000001 -0.15
0.9125000000000001 -0.1375
0.9125000000000001 -0.125
0.9125000000000001 -0.1125
0.9125000000000001 -0.1
0.9125000000000001 -0.08749999999999999
0.9125000000000001 -0.07500000000000001
0.9125000000000001 -0.0625
0.9125000000000001 -0.05
0.9125000000000001 -0.03750000000000001
0.9125000000000001 -0.02499999999999999
0.9125000000000001 -0.0125
0.9125000000000001 0
0.925 -0.25
0.925 -0.2375
0.925 -0.225
0.925 -0.2125
0.925 -0.2
0.925 -0.1875
0.925 -0.175
0.925 -0.1625
0.925 -0.15
0.925 -0.1375
0.925 -0.125
0.925 -0.1125
0.925 -0.1
0.925 -0.08749999999999999
0.925 -0.07500000000000001
0.925 -0.0625
0.925 -0.05
0.925 -0.03750000000000001
0.925 -0.025
0.925 -0.0125
0.925 0
0.9375 -0.25
0.9375 -0.2375000000000001
0.9375 -0.225
0.9375 -0.2125
0.9375 -0.2
0.9375 -0.1875
0.9375 -0.175
0.9375 -0.1625
0.9375 -0.15
0.9375 -0.1375
0.9375 -0.125
0.9375 -0.1125
0.9375 -0.1
0.9375 -0.08749999999999999
0.9375 -0.07500000000000001
0.9375 -0.0625
0.9375 -0.04999999999999999
0.9375 -0.03750000000000001
0.9375 -0.02499999999999999
0.9375 -0.0125
0.9375 0
0.95 -0.25
0.95 -0.2375
0.95 -0.225
0.95 -0.2125
0.95 -0.2
0.95 -0.1875
0.95 -0.175
0.95 -0.1625
0.95 -0.15
0.95 -0.1375
0.9499999999999998 -0.125
0.9499999999999998 -0.1125
0.9500000000000001 -0.1
0.9499999999999998 -0.08749999999999999
0.9500000000000001 -0.07500000000000001
0.9499999999999998 -0.0625
0.9500000000000001 -0.05
0.9499999999999998 -0.03750000000000001
0.9500000000000001 -0.025
0.9499999999999998 -0.0125
0.9500000000000001 0
0.9624999999999999 -0.25
0.9624999999999999 -0.2375
0.9624999999999999 -0.225
0.9624999999999999 -0.2125
0.9624999999999999 -0.2000000000000001
0.9624999999999998 -0.1875
0.9624999999999998 -0.175
0.9625000000000002 -0.1625
0.9624999999999998 -0.15
0.9625000000000002 -0.1375
0.9625 -0.125
0.9625000000000002 -0.1125
0.9625 -0.1
0.9625 -0.08749999999999999
0.9625000000000002 -0.07500000000000001
0.9625000000000002 -0.0625
0.9625000000000001 -0.05
0.9625000000000001 -0.03750000000000001
0.9625000000000001 -0.025
0.9625000000000001 -0.0125
0.9625000000000001 0
0.9750000000000001 -0.25
0.9750000000000001 -0.2375
0.9750000000000001 -0.225
0.9750000000000001 -0.2125
0.9750000000000001 -0.2000000000000001
0.9750000000000001 -0.1875
0.9750000000000001 -0.175
0.9750000000000001 -0.1625
0.9750000000000001 -0.15
0.9750000000000001 -0.1375
0.975 -0.125
0.975 -0.1125
0.975 -0.1
0.975 -0.08749999999999999
0.9750000000000002 -0.07500000000000001
0.9750000000000002 -0.0625
0.9750000000000002 -0.05
0.975 -0.03750000000000001
0.9750000000000002 -0.025
0.9750000000000002 -0.0125
0.9750000000000002 0
0.9875 -0.25
0.9875 -0.2375
0.9875 -0.225
0.9875 -0.2125
0.9875 -0.2000000000000001
0.9875 -0.1875
0.9875 -0.175
0.9875 -0.1625
0.9875 -0.15
0.9875 -0.1375
0.9874999999999999 -0.125
0.9874999999999999 -0.1125
0.9874999999999999 -0.1
0.9874999999999999 -0.08749999999999999
0.9874999999999999 -0.07500000000000001
0.9874999999999999 -0.0625
0.9874999999999999 -0.05
0.9875000000000002 -0.03750000000000001
0.9875000000000002 -0.025
0.9875000000000002 -0.0125
0.9875000000000002 0
1 -0.25
1 -0.2375
1 -0.225
1 -0.2125
1 -0.2
1 -0.1875
1 -0.175
1 -0.1625
1 -0.15
1 -0.1375
1 -0.125
1 -0.1125
1 -0.1
1 -0.08749999999999999
1 -0.07500000000000001
1 -0.0625
1 -0.05
1 -0.03750000000000001
1 -0.025
1 -0.0125
1 0
