# vtk DataFile Version 2.0

ASCII

DATASET UNSTRUCTURED_GRID

POINTS 81 double 

0.00000000000000000e+00  0.00000000000000000e+00  0.00000000000000000e+00
1.25000000000000007e-02  0.00000000000000000e+00  0.00000000000000000e+00
2.50000000000000014e-02  0.00000000000000000e+00  0.00000000000000000e+00
3.75000000000000125e-02  0.00000000000000000e+00  0.00000000000000000e+00
5.00000000000000028e-02  0.00000000000000000e+00  0.00000000000000000e+00
6.25000000000000000e-02  0.00000000000000000e+00  0.00000000000000000e+00
7.50000000000000111e-02  0.00000000000000000e+00  0.00000000000000000e+00
8.74999999999999944e-02  0.00000000000000000e+00  0.00000000000000000e+00
1.00000000000000006e-01  0.00000000000000000e+00  0.00000000000000000e+00
1.12500000000000003e-01  0.00000000000000000e+00  0.00000000000000000e+00
1.25000000000000000e-01  0.00000000000000000e+00  0.00000000000000000e+00
1.37500000000000011e-01  0.00000000000000000e+00  0.00000000000000000e+00
1.49999999999999994e-01  0.00000000000000000e+00  0.00000000000000000e+00
1.62500000000000006e-01  0.00000000000000000e+00  0.00000000000000000e+00
1.74999999999999989e-01  0.00000000000000000e+00  0.00000000000000000e+00
1.87500000000000000e-01  0.00000000000000000e+00  0.00000000000000000e+00
2.00000000000000011e-01  0.00000000000000000e+00  0.00000000000000000e+00
2.12499999999999994e-01  0.00000000000000000e+00  0.00000000000000000e+00
2.25000000000000006e-01  0.00000000000000000e+00  0.00000000000000000e+00
2.37499999999999989e-01  0.00000000000000000e+00  0.00000000000000000e+00
2.50000000000000000e-01  0.00000000000000000e+00  0.00000000000000000e+00
2.62500000000000011e-01  0.00000000000000000e+00  0.00000000000000000e+00
2.75000000000000022e-01  0.00000000000000000e+00  0.00000000000000000e+00
2.87499999999999978e-01  0.00000000000000000e+00  0.00000000000000000e+00
2.99999999999999989e-01  0.00000000000000000e+00  0.00000000000000000e+00
3.12500000000000000e-01  0.00000000000000000e+00  0.00000000000000000e+00
3.25000000000000011e-01  0.00000000000000000e+00  0.00000000000000000e+00
3.37500000000000022e-01  0.00000000000000000e+00  0.00000000000000000e+00
3.49999999999999978e-01  0.00000000000000000e+00  0.00000000000000000e+00
3.62499999999999989e-01  0.00000000000000000e+00  0.00000000000000000e+00
3.75000000000000000e-01  0.00000000000000000e+00  0.00000000000000000e+00
3.87500000000000122e-01  0.00000000000000000e+00  0.00000000000000000e+00
4.00000000000000022e-01  0.00000000000000000e+00  0.00000000000000000e+00
4.12499999999999978e-01  0.00000000000000000e+00  0.00000000000000000e+00
4.24999999999999989e-01  0.00000000000000000e+00  0.00000000000000000e+00
4.37500000000000000e-01  0.00000000000000000e+00  0.00000000000000000e+00
4.50000000000000011e-01  0.00000000000000000e+00  0.00000000000000000e+00
4.62500000000000022e-01  0.00000000000000000e+00  0.00000000000000000e+00
4.74999999999999978e-01  0.00000000000000000e+00  0.00000000000000000e+00
4.87499999999999989e-01  0.00000000000000000e+00  0.00000000000000000e+00
5.00000000000000000e-01  0.00000000000000000e+00  0.00000000000000000e+00
5.12500000000000067e-01  0.00000000000000000e+00  0.00000000000000000e+00
5.25000000000000022e-01  0.00000000000000000e+00  0.00000000000000000e+00
5.37499999999999978e-01  0.00000000000000000e+00  0.00000000000000000e+00
5.50000000000000044e-01  0.00000000000000000e+00  0.00000000000000000e+00
5.62500000000000000e-01  0.00000000000000000e+00  0.00000000000000000e+00
5.75000000000000067e-01  0.00000000000000000e+00  0.00000000000000000e+00
5.87500000000000022e-01  0.00000000000000000e+00  0.00000000000000000e+00
6.00000000000000089e-01  0.00000000000000000e+00  0.00000000000000000e+00
6.12500000000000044e-01  0.00000000000000000e+00  0.00000000000000000e+00
6.25000000000000000e-01  0.00000000000000000e+00  0.00000000000000000e+00
6.37500000000000067e-01  0.00000000000000000e+00  0.00000000000000000e+00
6.49999999999999911e-01  0.00000000000000000e+00  0.00000000000000000e+00
6.62500000000000089e-01  0.00000000000000000e+00  0.00000000000000000e+00
6.75000000000000044e-01  0.00000000000000000e+00  0.00000000000000000e+00
6.87500000000000000e-01  0.00000000000000000e+00  0.00000000000000000e+00
7.00000000000000067e-01  0.00000000000000000e+00  0.00000000000000000e+00
7.12500000000000022e-01  0.00000000000000000e+00  0.00000000000000000e+00
7.25000000000000089e-01  0.00000000000000000e+00  0.00000000000000000e+00
7.37500000000000044e-01  0.00000000000000000e+00  0.00000000000000000e+00
7.50000000000000111e-01  0.00000000000000000e+00  0.00000000000000000e+00
7.62500000000000067e-01  0.00000000000000000e+00  0.00000000000000000e+00
7.74999999999999911e-01  0.00000000000000000e+00  0.00000000000000000e+00
7.87500000000000089e-01  0.00000000000000000e+00  0.00000000000000000e+00
8.00000000000000044e-01  0.00000000000000000e+00  0.00000000000000000e+00
8.12500000000000000e-01  0.00000000000000000e+00  0.00000000000000000e+00
8.25000000000000178e-01  0.00000000000000000e+00  0.00000000000000000e+00
8.37499999999999911e-01  0.00000000000000000e+00  0.00000000000000000e+00
8.50000000000000089e-01  0.00000000000000000e+00  0.00000000000000000e+00
8.62500000000000044e-01  0.00000000000000000e+00  0.00000000000000000e+00
8.75000000000000000e-01  0.00000000000000000e+00  0.00000000000000000e+00
8.87499999999999956e-01  0.00000000000000000e+00  0.00000000000000000e+00
9.00000000000000022e-01  0.00000000000000000e+00  0.00000000000000000e+00
9.12500000000000089e-01  0.00000000000000000e+00  0.00000000000000000e+00
9.25000000000000044e-01  0.00000000000000000e+00  0.00000000000000000e+00
9.37500000000000000e-01  0.00000000000000000e+00  0.00000000000000000e+00
9.50000000000000067e-01  0.00000000000000000e+00  0.00000000000000000e+00
9.62500000000000133e-01  0.00000000000000000e+00  0.00000000000000000e+00
9.75000000000000200e-01  0.00000000000000000e+00  0.00000000000000000e+00
9.87500000000000155e-01  0.00000000000000000e+00  0.00000000000000000e+00
1.00000000000000000e+00  0.00000000000000000e+00  0.00000000000000000e+00

CELLS 0 0


CELL_TYPES 0


POINT_DATA 81

SCALARS Rank unsigned_int
LOOKUP_TABLE default
0 0 0 0 0 0 0 0 0 0 0 0 0 0 0 0 0 0 0 0 0 0 0 0 0 0 0 0 0 0 0 0 0 0 0 0 0 0 0 0 0 0 0 0 0 0 0 0 0 0 0 0 0 0 0 0 0 0 0 0 0 0 0 0 0 0 0 0 0 0 0 0 0 0 0 0 0 0 0 0 0 

SCALARS Temperature double
LOOKUP_TABLE default
3.02954313388473395e+02
3.03031216116464009e+02
3.03168935466144831e+02
3.03265960161512623e+02
3.03363590602016245e+02
3.03440857559153187e+02
3.03516056162161533e+02
3.03579051585338391e+02
3.03639163639349306e+02
3.03691170438485244e+02
3.03740219111098554e+02
3.03783479666487040e+02
3.03823978281532447e+02
3.03860123353743745e+02
3.03893784290546364e+02
3.03924045112433305e+02
3.03952108108594473e+02
3.03977442305855220e+02
3.04000848633748888e+02
3.04022023117037520e+02
3.04041516955925943e+02
3.04059162985790465e+02
3.04075352262877345e+02
3.04090000650917830e+02
3.04103393365726447e+02
3.04115496106425098e+02
3.04126521969683154e+02
3.04136465562590104e+02
3.04145489389522197e+02
3.04153603640644462e+02
3.04160934409270681e+02
3.04167498939968198e+02
3.04173396567196448e+02
3.04178646072152333e+02
3.04183326816867350e+02
3.04187455444819875e+02
3.04191096287194171e+02
3.04194261245475730e+02
3.04197003378935847e+02
3.04199327785841774e+02
3.04201279287201316e+02
3.04202854273374101e+02
3.04204091974685923e+02
3.04204978004397503e+02
3.04205548542841086e+02
3.04205775882215448e+02
3.04205695853608972e+02
3.04205264064083678e+02
3.04204519157780794e+02
3.04203395442395276e+02
3.04201938387930284e+02
3.04200054557977865e+02
3.04197801657776154e+02
3.04195049403137602e+02
3.04191875346609379e+02
3.04188099362507046e+02
3.04183829896061127e+02
3.04178818207162351e+02
3.04173220043762115e+02
3.04166690512981802e+02
3.04159457556796667e+02
3.04151038957424987e+02
3.04141773410717178e+02
3.04130978351126430e+02
3.04119164407802373e+02
3.04105349353263819e+02
3.04090315663019794e+02
3.04072619230049554e+02
3.04053483491609086e+02
3.04030725517111989e+02
3.04006308891082824e+02
3.03976812777591761e+02
3.03945499032930286e+02
3.03906749331996821e+02
3.03866229807697493e+02
3.03814137961942151e+02
3.03760885638558079e+02
3.03687973415122883e+02
3.03615848282119941e+02
3.03504472793829564e+02
3.03443447518326707e+02

SCALARS Heat-Flux double
LOOKUP_TABLE default
-4.67514785929055142e+03
-3.88099923344631907e+03
-2.86639622909404898e+03
-2.99363604845912414e+03
-2.60460122083844954e+03
-2.67617012029163925e+03
-2.48796335870051917e+03
-2.52042115915300019e+03
-2.41888044378956738e+03
-2.43301645990241832e+03
-2.37397756648023505e+03
-2.37979727025847387e+03
-2.34359375807690685e+03
-2.34565878097089762e+03
-2.32261842635197536e+03
-2.32305601592123003e+03
-2.30804612012975031e+03
-2.30788356012106669e+03
-2.29800323695161933e+03
-2.29773836182025570e+03
-2.29125040263052915e+03
-2.29110661219620033e+03
-2.28691235585464347e+03
-2.28696503155168830e+03
-2.28433591481044732e+03
-2.28458296313536948e+03
-2.28301829441982636e+03
-2.28342175685626535e+03
-2.28256924263330257e+03
-2.28307908180137974e+03
-2.28268696819377692e+03
-2.28325340584074002e+03
-2.28313943583510854e+03
-2.28371848482347696e+03
-2.28374873730505124e+03
-2.28430421452377232e+03
-2.28437832365698750e+03
-2.28488234580392327e+03
-2.28492299169140142e+03
-2.28535600938209654e+03
-2.28530121757434017e+03
-2.28565211856163751e+03
-2.28544933950446466e+03
-2.28571598403383177e+03
-2.28531725344538972e+03
-2.28550783121371524e+03
-2.28486553305155621e+03
-2.28500125178727421e+03
-2.28406409861959719e+03
-2.28418390765291588e+03
-2.28289272950174654e+03
-2.28306110024967938e+03
-2.28134388761032324e+03
-2.28166322537070937e+03
-2.27942857113552191e+03
-2.28005879836948907e+03
-2.27718631498008153e+03
-2.27837589533093978e+03
-2.27470111672854409e+03
-2.27683698429952801e+03
-2.27212620233462894e+03
-2.27581620446985289e+03
-2.26972255496596517e+03
-2.27593641779073323e+03
-2.26791985892150205e+03
-2.27824109904602119e+03
-2.26741592045584457e+03
-2.28451685260618433e+03
-2.26934713711044606e+03
-2.29794322039904182e+03
-2.27560653724114627e+03
-2.32451984960403570e+03
-2.28953433978231078e+03
-2.37655487705086580e+03
-2.31786630068442628e+03
-2.48251966451125418e+03
-2.37851228224894612e+03
-2.72132344600725173e+03
-2.55239379744786766e+03
-3.44000927838825919e+03
-4.04372302813276201e+03

